<?xml version="1.0" encoding="utf-8"?>
<!-- Generator: Adobe Illustrator 18.0.0, SVG Export Plug-In . SVG Version: 6.00 Build 0)  -->
<!DOCTYPE svg PUBLIC "-//W3C//DTD SVG 1.1//EN" "http://www.w3.org/Graphics/SVG/1.1/DTD/svg11.dtd">
<svg version="1.1" id="Layer_1" xmlns="http://www.w3.org/2000/svg" xmlns:xlink="http://www.w3.org/1999/xlink" x="0px" y="0px"
	 viewBox="0 0 210 440" enable-background="new 0 0 210 440" xml:space="preserve">
<g>
	<path fill="#FFFFFF" stroke="#000000" stroke-width="2.9906" stroke-miterlimit="10" d="M187.5,371.3c1.6,31.8-35.4,56.1-82.4,58.4
		c-47,2.3-86.2-18.1-87.8-49.9"/>
	
		<ellipse transform="matrix(0.9988 -4.977237e-02 4.977237e-02 0.9988 -18.0711 5.5222)" fill="#FFFFFF" stroke="#000000" stroke-width="2.9906" stroke-miterlimit="10" cx="101.8" cy="365.6" rx="85.2" ry="57.7"/>
	<line fill="none" stroke="#000000" stroke-width="2.9906" stroke-miterlimit="10" x1="17.2" y1="380.6" x2="16.7" y2="369.9"/>
	<line fill="none" stroke="#000000" stroke-width="2.9906" stroke-miterlimit="10" x1="187.5" y1="372.1" x2="187" y2="361.4"/>
	<line fill="none" stroke="#000000" stroke-width="2.9906" stroke-miterlimit="10" x1="26" y1="393.9" x2="26.1" y2="403.4"/>
	<line fill="none" stroke="#000000" stroke-width="2.9906" stroke-miterlimit="10" x1="39" y1="406.2" x2="39" y2="414.9"/>
	<line fill="none" stroke="#000000" stroke-width="2.9906" stroke-miterlimit="10" x1="56.9" y1="415.9" x2="56.9" y2="423.5"/>
	<line fill="none" stroke="#000000" stroke-width="2.9906" stroke-miterlimit="10" x1="71.7" y1="420.4" x2="71.6" y2="427.5"/>
	<line fill="none" stroke="#000000" stroke-width="2.9906" stroke-miterlimit="10" x1="89.4" y1="423.1" x2="89.1" y2="429.6"/>
	<line fill="none" stroke="#000000" stroke-width="2.9906" stroke-miterlimit="10" x1="107.7" y1="423.1" x2="108" y2="428.7"/>
	<line fill="none" stroke="#000000" stroke-width="2.9906" stroke-miterlimit="10" x1="122.7" y1="421" x2="123.2" y2="427.7"/>
	<line fill="none" stroke="#000000" stroke-width="2.9906" stroke-miterlimit="10" x1="137.3" y1="417.2" x2="138.1" y2="424.1"/>
	<line fill="none" stroke="#000000" stroke-width="2.9906" stroke-miterlimit="10" x1="151.6" y1="411.1" x2="152.4" y2="418.8"/>
	<line fill="none" stroke="#000000" stroke-width="2.9906" stroke-miterlimit="10" x1="164.2" y1="403.2" x2="164.3" y2="412.1"/>
	<line fill="none" stroke="#000000" stroke-width="2.9906" stroke-miterlimit="10" x1="174.4" y1="393.9" x2="175.5" y2="402.7"/>
	<line fill="none" stroke="#000000" stroke-width="2.9906" stroke-miterlimit="10" x1="181.2" y1="384.5" x2="182.3" y2="393.5"/>
</g>
<g>
	<path fill="#FFFFFF" stroke="#000000" stroke-width="2.9906" stroke-miterlimit="10" d="M187.5,345.9c1.6,31.8-35.4,56.1-82.4,58.4
		s-86.2-18.1-87.8-49.9"/>
	
		<ellipse transform="matrix(0.9988 -4.977237e-02 4.977237e-02 0.9988 -16.8106 5.4908)" fill="#FFFFFF" stroke="#000000" stroke-width="2.9906" stroke-miterlimit="10" cx="101.8" cy="340.3" rx="85.2" ry="57.7"/>
	<line fill="none" stroke="#000000" stroke-width="2.9906" stroke-miterlimit="10" x1="17.2" y1="355.3" x2="16.7" y2="344.5"/>
	<line fill="none" stroke="#000000" stroke-width="2.9906" stroke-miterlimit="10" x1="187.5" y1="346.8" x2="187" y2="336"/>
	<line fill="none" stroke="#000000" stroke-width="2.9906" stroke-miterlimit="10" x1="26" y1="368.6" x2="26.1" y2="378.1"/>
	<line fill="none" stroke="#000000" stroke-width="2.9906" stroke-miterlimit="10" x1="39" y1="380.9" x2="39" y2="389.6"/>
	<line fill="none" stroke="#000000" stroke-width="2.9906" stroke-miterlimit="10" x1="56.9" y1="390.5" x2="56.9" y2="398.2"/>
	<line fill="none" stroke="#000000" stroke-width="2.9906" stroke-miterlimit="10" x1="71.7" y1="395.1" x2="71.6" y2="402.1"/>
	<line fill="none" stroke="#000000" stroke-width="2.9906" stroke-miterlimit="10" x1="89.4" y1="397.7" x2="89.1" y2="404.3"/>
	<line fill="none" stroke="#000000" stroke-width="2.9906" stroke-miterlimit="10" x1="107.7" y1="397.8" x2="108" y2="403.3"/>
	<line fill="none" stroke="#000000" stroke-width="2.9906" stroke-miterlimit="10" x1="122.7" y1="395.7" x2="123.2" y2="402.3"/>
	<line fill="none" stroke="#000000" stroke-width="2.9906" stroke-miterlimit="10" x1="137.3" y1="391.8" x2="138.1" y2="398.8"/>
	<line fill="none" stroke="#000000" stroke-width="2.9906" stroke-miterlimit="10" x1="151.6" y1="385.8" x2="152.4" y2="393.4"/>
	<line fill="none" stroke="#000000" stroke-width="2.9906" stroke-miterlimit="10" x1="164.2" y1="377.9" x2="164.3" y2="386.7"/>
	<line fill="none" stroke="#000000" stroke-width="2.9906" stroke-miterlimit="10" x1="174.4" y1="368.6" x2="175.5" y2="377.4"/>
	<line fill="none" stroke="#000000" stroke-width="2.9906" stroke-miterlimit="10" x1="181.2" y1="359.2" x2="182.3" y2="368.2"/>
</g>
<g>
	<path fill="#FFFFFF" stroke="#000000" stroke-width="2.9906" stroke-miterlimit="10" d="M187.5,317.2c1.6,31.8-35.4,56.1-82.4,58.4
		s-86.2-18.1-87.8-49.9"/>
	
		<ellipse transform="matrix(0.9988 -4.977237e-02 4.977237e-02 0.9988 -15.3821 5.4552)" fill="#FFFFFF" stroke="#000000" stroke-width="2.9906" stroke-miterlimit="10" cx="101.8" cy="311.6" rx="85.2" ry="57.7"/>
	<line fill="none" stroke="#000000" stroke-width="2.9906" stroke-miterlimit="10" x1="17.2" y1="326.6" x2="16.7" y2="315.8"/>
	<line fill="none" stroke="#000000" stroke-width="2.9906" stroke-miterlimit="10" x1="187.5" y1="318.1" x2="187" y2="307.3"/>
	<line fill="none" stroke="#000000" stroke-width="2.9906" stroke-miterlimit="10" x1="26" y1="339.9" x2="26.1" y2="349.4"/>
	<line fill="none" stroke="#000000" stroke-width="2.9906" stroke-miterlimit="10" x1="39" y1="352.2" x2="39" y2="360.9"/>
	<line fill="none" stroke="#000000" stroke-width="2.9906" stroke-miterlimit="10" x1="56.9" y1="361.8" x2="56.9" y2="369.5"/>
	<line fill="none" stroke="#000000" stroke-width="2.9906" stroke-miterlimit="10" x1="71.7" y1="366.4" x2="71.6" y2="373.4"/>
	<line fill="none" stroke="#000000" stroke-width="2.9906" stroke-miterlimit="10" x1="89.4" y1="369" x2="89.1" y2="375.6"/>
	<line fill="none" stroke="#000000" stroke-width="2.9906" stroke-miterlimit="10" x1="107.7" y1="369.1" x2="108" y2="374.6"/>
	<line fill="none" stroke="#000000" stroke-width="2.9906" stroke-miterlimit="10" x1="122.7" y1="367" x2="123.2" y2="373.6"/>
	<line fill="none" stroke="#000000" stroke-width="2.9906" stroke-miterlimit="10" x1="137.3" y1="363.1" x2="138.1" y2="370.1"/>
	<line fill="none" stroke="#000000" stroke-width="2.9906" stroke-miterlimit="10" x1="151.6" y1="357.1" x2="152.4" y2="364.7"/>
	<line fill="none" stroke="#000000" stroke-width="2.9906" stroke-miterlimit="10" x1="164.2" y1="349.2" x2="164.3" y2="358"/>
	<line fill="none" stroke="#000000" stroke-width="2.9906" stroke-miterlimit="10" x1="174.4" y1="339.9" x2="175.5" y2="348.7"/>
	<line fill="none" stroke="#000000" stroke-width="2.9906" stroke-miterlimit="10" x1="181.2" y1="330.5" x2="182.3" y2="339.5"/>
</g>
<g>
	<path fill="#FFFFFF" stroke="#000000" stroke-width="2.9906" stroke-miterlimit="10" d="M187.5,291.9c1.6,31.8-35.4,56.1-82.4,58.4
		c-47,2.3-86.2-18.1-87.8-49.9"/>
	
		<ellipse transform="matrix(0.9988 -4.977237e-02 4.977237e-02 0.9988 -14.1217 5.4238)" fill="#FFFFFF" stroke="#000000" stroke-width="2.9906" stroke-miterlimit="10" cx="101.8" cy="286.3" rx="85.2" ry="57.7"/>
	<line fill="none" stroke="#000000" stroke-width="2.9906" stroke-miterlimit="10" x1="17.2" y1="301.3" x2="16.7" y2="290.5"/>
	<line fill="none" stroke="#000000" stroke-width="2.9906" stroke-miterlimit="10" x1="187.5" y1="292.8" x2="187" y2="282"/>
	<line fill="none" stroke="#000000" stroke-width="2.9906" stroke-miterlimit="10" x1="26" y1="314.5" x2="26.1" y2="324.1"/>
	<line fill="none" stroke="#000000" stroke-width="2.9906" stroke-miterlimit="10" x1="39" y1="326.9" x2="39" y2="335.6"/>
	<line fill="none" stroke="#000000" stroke-width="2.9906" stroke-miterlimit="10" x1="56.9" y1="336.5" x2="56.9" y2="344.2"/>
	<line fill="none" stroke="#000000" stroke-width="2.9906" stroke-miterlimit="10" x1="71.7" y1="341.1" x2="71.6" y2="348.1"/>
	<line fill="none" stroke="#000000" stroke-width="2.9906" stroke-miterlimit="10" x1="89.4" y1="343.7" x2="89.1" y2="350.3"/>
	<line fill="none" stroke="#000000" stroke-width="2.9906" stroke-miterlimit="10" x1="107.7" y1="343.7" x2="108" y2="349.3"/>
	<line fill="none" stroke="#000000" stroke-width="2.9906" stroke-miterlimit="10" x1="122.7" y1="341.7" x2="123.2" y2="348.3"/>
	<line fill="none" stroke="#000000" stroke-width="2.9906" stroke-miterlimit="10" x1="137.3" y1="337.8" x2="138.1" y2="344.8"/>
	<line fill="none" stroke="#000000" stroke-width="2.9906" stroke-miterlimit="10" x1="151.6" y1="331.8" x2="152.4" y2="339.4"/>
	<line fill="none" stroke="#000000" stroke-width="2.9906" stroke-miterlimit="10" x1="164.2" y1="323.9" x2="164.3" y2="332.7"/>
	<line fill="none" stroke="#000000" stroke-width="2.9906" stroke-miterlimit="10" x1="174.4" y1="314.6" x2="175.5" y2="323.3"/>
	<line fill="none" stroke="#000000" stroke-width="2.9906" stroke-miterlimit="10" x1="181.2" y1="305.1" x2="182.3" y2="314.2"/>
</g>
<g>
	<path fill="#FFFFFF" stroke="#000000" stroke-width="2.9906" stroke-miterlimit="10" d="M179,275c1.6,31.8-35.4,56.1-82.4,58.4
		c-47,2.3-86.2-18.1-87.8-49.9"/>
	
		<ellipse transform="matrix(0.9988 -4.977237e-02 4.977237e-02 0.9988 -13.2919 4.9828)" fill="#FFFFFF" stroke="#000000" stroke-width="2.9906" stroke-miterlimit="10" cx="93.4" cy="269.4" rx="85.2" ry="57.7"/>
	<line fill="none" stroke="#000000" stroke-width="2.9906" stroke-miterlimit="10" x1="8.8" y1="284.4" x2="8.3" y2="273.6"/>
	<line fill="none" stroke="#000000" stroke-width="2.9906" stroke-miterlimit="10" x1="179.1" y1="275.9" x2="178.5" y2="265.1"/>
	<line fill="none" stroke="#000000" stroke-width="2.9906" stroke-miterlimit="10" x1="17.5" y1="297.7" x2="17.7" y2="307.2"/>
	<line fill="none" stroke="#000000" stroke-width="2.9906" stroke-miterlimit="10" x1="30.5" y1="310" x2="30.6" y2="318.7"/>
	<line fill="none" stroke="#000000" stroke-width="2.9906" stroke-miterlimit="10" x1="48.4" y1="319.6" x2="48.4" y2="327.3"/>
	<line fill="none" stroke="#000000" stroke-width="2.9906" stroke-miterlimit="10" x1="63.3" y1="324.2" x2="63.2" y2="331.2"/>
	<line fill="none" stroke="#000000" stroke-width="2.9906" stroke-miterlimit="10" x1="81" y1="326.8" x2="80.6" y2="333.4"/>
	<line fill="none" stroke="#000000" stroke-width="2.9906" stroke-miterlimit="10" x1="99.3" y1="326.8" x2="99.6" y2="332.4"/>
	<line fill="none" stroke="#000000" stroke-width="2.9906" stroke-miterlimit="10" x1="114.3" y1="324.8" x2="114.7" y2="331.4"/>
	<line fill="none" stroke="#000000" stroke-width="2.9906" stroke-miterlimit="10" x1="128.8" y1="320.9" x2="129.6" y2="327.9"/>
	<line fill="none" stroke="#000000" stroke-width="2.9906" stroke-miterlimit="10" x1="143.2" y1="314.9" x2="143.9" y2="322.5"/>
	<line fill="none" stroke="#000000" stroke-width="2.9906" stroke-miterlimit="10" x1="155.8" y1="307" x2="155.9" y2="315.8"/>
	<line fill="none" stroke="#000000" stroke-width="2.9906" stroke-miterlimit="10" x1="166" y1="297.7" x2="167" y2="306.4"/>
	<line fill="none" stroke="#000000" stroke-width="2.9906" stroke-miterlimit="10" x1="172.8" y1="288.2" x2="173.9" y2="297.3"/>
</g>
<g>
	<path fill="#FFFFFF" stroke="#000000" stroke-width="2.9906" stroke-miterlimit="10" d="M187.5,252.9c1.6,31.8-35.4,56.1-82.4,58.4
		c-47,2.3-86.2-18.1-87.8-49.9"/>
	
		<ellipse transform="matrix(0.9988 -4.977237e-02 4.977237e-02 0.9988 -12.18 5.3755)" fill="#FFFFFF" stroke="#000000" stroke-width="2.9906" stroke-miterlimit="10" cx="101.8" cy="247.3" rx="85.2" ry="57.7"/>
	<line fill="none" stroke="#000000" stroke-width="2.9906" stroke-miterlimit="10" x1="17.2" y1="262.2" x2="16.7" y2="251.5"/>
	<line fill="none" stroke="#000000" stroke-width="2.9906" stroke-miterlimit="10" x1="187.5" y1="253.8" x2="187" y2="243"/>
	<line fill="none" stroke="#000000" stroke-width="2.9906" stroke-miterlimit="10" x1="26" y1="275.5" x2="26.1" y2="285.1"/>
	<line fill="none" stroke="#000000" stroke-width="2.9906" stroke-miterlimit="10" x1="39" y1="287.9" x2="39" y2="296.6"/>
	<line fill="none" stroke="#000000" stroke-width="2.9906" stroke-miterlimit="10" x1="56.9" y1="297.5" x2="56.9" y2="305.2"/>
	<line fill="none" stroke="#000000" stroke-width="2.9906" stroke-miterlimit="10" x1="71.7" y1="302.1" x2="71.6" y2="309.1"/>
	<line fill="none" stroke="#000000" stroke-width="2.9906" stroke-miterlimit="10" x1="89.4" y1="304.7" x2="89.1" y2="311.3"/>
	<line fill="none" stroke="#000000" stroke-width="2.9906" stroke-miterlimit="10" x1="107.7" y1="304.7" x2="108" y2="310.3"/>
	<line fill="none" stroke="#000000" stroke-width="2.9906" stroke-miterlimit="10" x1="122.7" y1="302.7" x2="123.2" y2="309.3"/>
	<line fill="none" stroke="#000000" stroke-width="2.9906" stroke-miterlimit="10" x1="137.3" y1="298.8" x2="138.1" y2="305.8"/>
	<line fill="none" stroke="#000000" stroke-width="2.9906" stroke-miterlimit="10" x1="151.6" y1="292.8" x2="152.4" y2="300.4"/>
	<line fill="none" stroke="#000000" stroke-width="2.9906" stroke-miterlimit="10" x1="164.2" y1="284.9" x2="164.3" y2="293.7"/>
	<line fill="none" stroke="#000000" stroke-width="2.9906" stroke-miterlimit="10" x1="174.4" y1="275.5" x2="175.5" y2="284.3"/>
	<line fill="none" stroke="#000000" stroke-width="2.9906" stroke-miterlimit="10" x1="181.2" y1="266.1" x2="182.3" y2="275.2"/>
</g>
<g>
	<path fill="#FFFFFF" stroke="#000000" stroke-width="2.9906" stroke-miterlimit="10" d="M201.7,231.9c1.6,31.8-35.4,56.1-82.4,58.4
		s-86.2-18.1-87.8-49.9"/>
	
		<ellipse transform="matrix(0.9988 -4.977237e-02 4.977237e-02 0.9988 -11.1148 6.0592)" fill="#FFFFFF" stroke="#000000" stroke-width="2.9906" stroke-miterlimit="10" cx="116.1" cy="226.2" rx="85.2" ry="57.7"/>
	<line fill="none" stroke="#000000" stroke-width="2.9906" stroke-miterlimit="10" x1="31.5" y1="241.2" x2="31" y2="230.4"/>
	<line fill="none" stroke="#000000" stroke-width="2.9906" stroke-miterlimit="10" x1="201.8" y1="232.7" x2="201.2" y2="222"/>
	<line fill="none" stroke="#000000" stroke-width="2.9906" stroke-miterlimit="10" x1="40.2" y1="254.5" x2="40.4" y2="264"/>
	<line fill="none" stroke="#000000" stroke-width="2.9906" stroke-miterlimit="10" x1="53.2" y1="266.8" x2="53.3" y2="275.5"/>
	<line fill="none" stroke="#000000" stroke-width="2.9906" stroke-miterlimit="10" x1="71.1" y1="276.4" x2="71.1" y2="284.1"/>
	<line fill="none" stroke="#000000" stroke-width="2.9906" stroke-miterlimit="10" x1="86" y1="281" x2="85.9" y2="288"/>
	<line fill="none" stroke="#000000" stroke-width="2.9906" stroke-miterlimit="10" x1="103.7" y1="283.7" x2="103.3" y2="290.2"/>
	<line fill="none" stroke="#000000" stroke-width="2.9906" stroke-miterlimit="10" x1="122" y1="283.7" x2="122.3" y2="289.3"/>
	<line fill="none" stroke="#000000" stroke-width="2.9906" stroke-miterlimit="10" x1="137" y1="281.6" x2="137.4" y2="288.2"/>
	<line fill="none" stroke="#000000" stroke-width="2.9906" stroke-miterlimit="10" x1="151.5" y1="277.8" x2="152.3" y2="284.7"/>
	<line fill="none" stroke="#000000" stroke-width="2.9906" stroke-miterlimit="10" x1="165.9" y1="271.7" x2="166.6" y2="279.3"/>
	<line fill="none" stroke="#000000" stroke-width="2.9906" stroke-miterlimit="10" x1="178.5" y1="263.8" x2="178.6" y2="272.7"/>
	<line fill="none" stroke="#000000" stroke-width="2.9906" stroke-miterlimit="10" x1="188.7" y1="254.5" x2="189.7" y2="263.3"/>
	<line fill="none" stroke="#000000" stroke-width="2.9906" stroke-miterlimit="10" x1="195.5" y1="245.1" x2="196.6" y2="254.1"/>
</g>
<g>
	<path fill="#FFFFFF" stroke="#000000" stroke-width="2.9906" stroke-miterlimit="10" d="M187.5,213c1.6,31.8-35.4,56.1-82.4,58.4
		c-47,2.3-86.2-18.1-87.8-49.9"/>
	
		<ellipse transform="matrix(0.9988 -4.977237e-02 4.977237e-02 0.9988 -10.1927 5.326)" fill="#FFFFFF" stroke="#000000" stroke-width="2.9906" stroke-miterlimit="10" cx="101.8" cy="207.3" rx="85.2" ry="57.7"/>
	<line fill="none" stroke="#000000" stroke-width="2.9906" stroke-miterlimit="10" x1="17.2" y1="222.3" x2="16.7" y2="211.6"/>
	<line fill="none" stroke="#000000" stroke-width="2.9906" stroke-miterlimit="10" x1="187.5" y1="213.8" x2="187" y2="203.1"/>
	<line fill="none" stroke="#000000" stroke-width="2.9906" stroke-miterlimit="10" x1="26" y1="235.6" x2="26.1" y2="245.2"/>
	<line fill="none" stroke="#000000" stroke-width="2.9906" stroke-miterlimit="10" x1="39" y1="248" x2="39" y2="256.6"/>
	<line fill="none" stroke="#000000" stroke-width="2.9906" stroke-miterlimit="10" x1="56.9" y1="257.6" x2="56.9" y2="265.2"/>
	<line fill="none" stroke="#000000" stroke-width="2.9906" stroke-miterlimit="10" x1="71.7" y1="262.1" x2="71.6" y2="269.2"/>
	<line fill="none" stroke="#000000" stroke-width="2.9906" stroke-miterlimit="10" x1="89.4" y1="264.8" x2="89.1" y2="271.3"/>
	<line fill="none" stroke="#000000" stroke-width="2.9906" stroke-miterlimit="10" x1="107.7" y1="264.8" x2="108" y2="270.4"/>
	<line fill="none" stroke="#000000" stroke-width="2.9906" stroke-miterlimit="10" x1="122.7" y1="262.7" x2="123.2" y2="269.4"/>
	<line fill="none" stroke="#000000" stroke-width="2.9906" stroke-miterlimit="10" x1="137.3" y1="258.9" x2="138.1" y2="265.9"/>
	<line fill="none" stroke="#000000" stroke-width="2.9906" stroke-miterlimit="10" x1="151.6" y1="252.8" x2="152.4" y2="260.5"/>
	<line fill="none" stroke="#000000" stroke-width="2.9906" stroke-miterlimit="10" x1="164.2" y1="245" x2="164.3" y2="253.8"/>
	<line fill="none" stroke="#000000" stroke-width="2.9906" stroke-miterlimit="10" x1="174.4" y1="235.6" x2="175.5" y2="244.4"/>
	<line fill="none" stroke="#000000" stroke-width="2.9906" stroke-miterlimit="10" x1="181.2" y1="226.2" x2="182.3" y2="235.2"/>
</g>
<g>
	<path fill="#FFFFFF" stroke="#000000" stroke-width="2.9906" stroke-miterlimit="10" d="M187.5,187.6c1.6,31.8-35.4,56.1-82.4,58.4
		c-47,2.3-86.2-18.1-87.8-49.9"/>
	
		<ellipse transform="matrix(0.9988 -4.977237e-02 4.977237e-02 0.9988 -8.9323 5.2946)" fill="#FFFFFF" stroke="#000000" stroke-width="2.9906" stroke-miterlimit="10" cx="101.8" cy="182" rx="85.2" ry="57.7"/>
	<line fill="none" stroke="#000000" stroke-width="2.9906" stroke-miterlimit="10" x1="17.2" y1="197" x2="16.7" y2="186.2"/>
	<line fill="none" stroke="#000000" stroke-width="2.9906" stroke-miterlimit="10" x1="187.5" y1="188.5" x2="187" y2="177.8"/>
	<line fill="none" stroke="#000000" stroke-width="2.9906" stroke-miterlimit="10" x1="26" y1="210.3" x2="26.1" y2="219.8"/>
	<line fill="none" stroke="#000000" stroke-width="2.9906" stroke-miterlimit="10" x1="39" y1="222.6" x2="39" y2="231.3"/>
	<line fill="none" stroke="#000000" stroke-width="2.9906" stroke-miterlimit="10" x1="56.9" y1="232.2" x2="56.9" y2="239.9"/>
	<line fill="none" stroke="#000000" stroke-width="2.9906" stroke-miterlimit="10" x1="71.7" y1="236.8" x2="71.6" y2="243.8"/>
	<line fill="none" stroke="#000000" stroke-width="2.9906" stroke-miterlimit="10" x1="89.4" y1="239.4" x2="89.1" y2="246"/>
	<line fill="none" stroke="#000000" stroke-width="2.9906" stroke-miterlimit="10" x1="107.7" y1="239.5" x2="108" y2="245.1"/>
	<line fill="none" stroke="#000000" stroke-width="2.9906" stroke-miterlimit="10" x1="122.7" y1="237.4" x2="123.2" y2="244"/>
	<line fill="none" stroke="#000000" stroke-width="2.9906" stroke-miterlimit="10" x1="137.3" y1="233.6" x2="138.1" y2="240.5"/>
	<line fill="none" stroke="#000000" stroke-width="2.9906" stroke-miterlimit="10" x1="151.6" y1="227.5" x2="152.4" y2="235.1"/>
	<line fill="none" stroke="#000000" stroke-width="2.9906" stroke-miterlimit="10" x1="164.2" y1="219.6" x2="164.3" y2="228.5"/>
	<line fill="none" stroke="#000000" stroke-width="2.9906" stroke-miterlimit="10" x1="174.4" y1="210.3" x2="175.5" y2="219.1"/>
	<line fill="none" stroke="#000000" stroke-width="2.9906" stroke-miterlimit="10" x1="181.2" y1="200.9" x2="182.3" y2="209.9"/>
</g>
<g>
	<path fill="#FFFFFF" stroke="#000000" stroke-width="2.9906" stroke-miterlimit="10" d="M187.5,158.9c1.6,31.8-35.4,56.1-82.4,58.4
		s-86.2-18.1-87.8-49.9"/>
	
		<ellipse transform="matrix(0.9988 -4.977237e-02 4.977237e-02 0.9988 -7.5038 5.259)" fill="#FFFFFF" stroke="#000000" stroke-width="2.9906" stroke-miterlimit="10" cx="101.8" cy="153.3" rx="85.2" ry="57.7"/>
	<line fill="none" stroke="#000000" stroke-width="2.9906" stroke-miterlimit="10" x1="17.2" y1="168.3" x2="16.7" y2="157.5"/>
	<line fill="none" stroke="#000000" stroke-width="2.9906" stroke-miterlimit="10" x1="187.5" y1="159.8" x2="187" y2="149.1"/>
	<line fill="none" stroke="#000000" stroke-width="2.9906" stroke-miterlimit="10" x1="26" y1="181.6" x2="26.1" y2="191.1"/>
	<line fill="none" stroke="#000000" stroke-width="2.9906" stroke-miterlimit="10" x1="39" y1="193.9" x2="39" y2="202.6"/>
	<line fill="none" stroke="#000000" stroke-width="2.9906" stroke-miterlimit="10" x1="56.9" y1="203.5" x2="56.9" y2="211.2"/>
	<line fill="none" stroke="#000000" stroke-width="2.9906" stroke-miterlimit="10" x1="71.7" y1="208.1" x2="71.6" y2="215.1"/>
	<line fill="none" stroke="#000000" stroke-width="2.9906" stroke-miterlimit="10" x1="89.4" y1="210.7" x2="89.1" y2="217.3"/>
	<line fill="none" stroke="#000000" stroke-width="2.9906" stroke-miterlimit="10" x1="107.7" y1="210.8" x2="108" y2="216.4"/>
	<line fill="none" stroke="#000000" stroke-width="2.9906" stroke-miterlimit="10" x1="122.7" y1="208.7" x2="123.2" y2="215.3"/>
	<line fill="none" stroke="#000000" stroke-width="2.9906" stroke-miterlimit="10" x1="137.3" y1="204.9" x2="138.1" y2="211.8"/>
	<line fill="none" stroke="#000000" stroke-width="2.9906" stroke-miterlimit="10" x1="151.6" y1="198.8" x2="152.4" y2="206.4"/>
	<line fill="none" stroke="#000000" stroke-width="2.9906" stroke-miterlimit="10" x1="164.2" y1="190.9" x2="164.3" y2="199.8"/>
	<line fill="none" stroke="#000000" stroke-width="2.9906" stroke-miterlimit="10" x1="174.4" y1="181.6" x2="175.5" y2="190.4"/>
	<line fill="none" stroke="#000000" stroke-width="2.9906" stroke-miterlimit="10" x1="181.2" y1="172.2" x2="182.3" y2="181.2"/>
</g>
<g>
	<path fill="#FFFFFF" stroke="#000000" stroke-width="2.9906" stroke-miterlimit="10" d="M187.5,133.6c1.6,31.8-35.4,56.1-82.4,58.4
		s-86.2-18.1-87.8-49.9"/>
	
		<ellipse transform="matrix(0.9988 -4.977237e-02 4.977237e-02 0.9988 -6.2433 5.2276)" fill="#FFFFFF" stroke="#000000" stroke-width="2.9906" stroke-miterlimit="10" cx="101.8" cy="128" rx="85.2" ry="57.7"/>
	<line fill="none" stroke="#000000" stroke-width="2.9906" stroke-miterlimit="10" x1="17.2" y1="143" x2="16.7" y2="132.2"/>
	<line fill="none" stroke="#000000" stroke-width="2.9906" stroke-miterlimit="10" x1="187.5" y1="134.5" x2="187" y2="123.7"/>
	<line fill="none" stroke="#000000" stroke-width="2.9906" stroke-miterlimit="10" x1="26" y1="156.3" x2="26.1" y2="165.8"/>
	<line fill="none" stroke="#000000" stroke-width="2.9906" stroke-miterlimit="10" x1="39" y1="168.6" x2="39" y2="177.3"/>
	<line fill="none" stroke="#000000" stroke-width="2.9906" stroke-miterlimit="10" x1="56.9" y1="178.2" x2="56.9" y2="185.9"/>
	<line fill="none" stroke="#000000" stroke-width="2.9906" stroke-miterlimit="10" x1="71.7" y1="182.8" x2="71.6" y2="189.8"/>
	<line fill="none" stroke="#000000" stroke-width="2.9906" stroke-miterlimit="10" x1="89.4" y1="185.4" x2="89.1" y2="192"/>
	<line fill="none" stroke="#000000" stroke-width="2.9906" stroke-miterlimit="10" x1="107.7" y1="185.4" x2="108" y2="191"/>
	<line fill="none" stroke="#000000" stroke-width="2.9906" stroke-miterlimit="10" x1="122.7" y1="183.4" x2="123.2" y2="190"/>
	<line fill="none" stroke="#000000" stroke-width="2.9906" stroke-miterlimit="10" x1="137.3" y1="179.5" x2="138.1" y2="186.5"/>
	<line fill="none" stroke="#000000" stroke-width="2.9906" stroke-miterlimit="10" x1="151.6" y1="173.5" x2="152.4" y2="181.1"/>
	<line fill="none" stroke="#000000" stroke-width="2.9906" stroke-miterlimit="10" x1="164.2" y1="165.6" x2="164.3" y2="174.4"/>
	<line fill="none" stroke="#000000" stroke-width="2.9906" stroke-miterlimit="10" x1="174.4" y1="156.3" x2="175.5" y2="165"/>
	<line fill="none" stroke="#000000" stroke-width="2.9906" stroke-miterlimit="10" x1="181.2" y1="146.8" x2="182.3" y2="155.9"/>
</g>
<g>
	<path fill="#FFFFFF" stroke="#000000" stroke-width="2.9906" stroke-miterlimit="10" d="M179,116.7c1.6,31.8-35.4,56.1-82.4,58.4
		S10.3,157,8.8,125.2"/>
	
		<ellipse transform="matrix(0.9988 -4.977237e-02 4.977237e-02 0.9988 -5.4135 4.7866)" fill="#FFFFFF" stroke="#000000" stroke-width="2.9906" stroke-miterlimit="10" cx="93.4" cy="111.1" rx="85.2" ry="57.7"/>
	<line fill="none" stroke="#000000" stroke-width="2.9906" stroke-miterlimit="10" x1="8.8" y1="126.1" x2="8.3" y2="115.3"/>
	<line fill="none" stroke="#000000" stroke-width="2.9906" stroke-miterlimit="10" x1="179.1" y1="117.6" x2="178.5" y2="106.8"/>
	<line fill="none" stroke="#000000" stroke-width="2.9906" stroke-miterlimit="10" x1="17.5" y1="139.4" x2="17.7" y2="148.9"/>
	<line fill="none" stroke="#000000" stroke-width="2.9906" stroke-miterlimit="10" x1="30.5" y1="151.7" x2="30.6" y2="160.4"/>
	<line fill="none" stroke="#000000" stroke-width="2.9906" stroke-miterlimit="10" x1="48.4" y1="161.3" x2="48.4" y2="169"/>
	<line fill="none" stroke="#000000" stroke-width="2.9906" stroke-miterlimit="10" x1="63.3" y1="165.9" x2="63.2" y2="172.9"/>
	<line fill="none" stroke="#000000" stroke-width="2.9906" stroke-miterlimit="10" x1="81" y1="168.5" x2="80.6" y2="175.1"/>
	<line fill="none" stroke="#000000" stroke-width="2.9906" stroke-miterlimit="10" x1="99.3" y1="168.6" x2="99.6" y2="174.1"/>
	<line fill="none" stroke="#000000" stroke-width="2.9906" stroke-miterlimit="10" x1="114.3" y1="166.5" x2="114.7" y2="173.1"/>
	<line fill="none" stroke="#000000" stroke-width="2.9906" stroke-miterlimit="10" x1="128.8" y1="162.6" x2="129.6" y2="169.6"/>
	<line fill="none" stroke="#000000" stroke-width="2.9906" stroke-miterlimit="10" x1="143.2" y1="156.6" x2="143.9" y2="164.2"/>
	<line fill="none" stroke="#000000" stroke-width="2.9906" stroke-miterlimit="10" x1="155.8" y1="148.7" x2="155.9" y2="157.5"/>
	<line fill="none" stroke="#000000" stroke-width="2.9906" stroke-miterlimit="10" x1="166" y1="139.4" x2="167" y2="148.2"/>
	<line fill="none" stroke="#000000" stroke-width="2.9906" stroke-miterlimit="10" x1="172.8" y1="130" x2="173.9" y2="139"/>
</g>
<g>
	<path fill="#FFFFFF" stroke="#000000" stroke-width="2.9906" stroke-miterlimit="10" d="M187.5,94.6c1.6,31.8-35.4,56.1-82.4,58.4
		c-47,2.3-86.2-18.1-87.8-49.9"/>
	
		<ellipse transform="matrix(0.9988 -4.977237e-02 4.977237e-02 0.9988 -4.3017 5.1793)" fill="#FFFFFF" stroke="#000000" stroke-width="2.9906" stroke-miterlimit="10" cx="101.8" cy="89" rx="85.2" ry="57.7"/>
	<line fill="none" stroke="#000000" stroke-width="2.9906" stroke-miterlimit="10" x1="17.2" y1="104" x2="16.7" y2="93.2"/>
	<line fill="none" stroke="#000000" stroke-width="2.9906" stroke-miterlimit="10" x1="187.5" y1="95.5" x2="187" y2="84.7"/>
	<line fill="none" stroke="#000000" stroke-width="2.9906" stroke-miterlimit="10" x1="26" y1="117.2" x2="26.1" y2="126.8"/>
	<line fill="none" stroke="#000000" stroke-width="2.9906" stroke-miterlimit="10" x1="39" y1="129.6" x2="39" y2="138.3"/>
	<line fill="none" stroke="#000000" stroke-width="2.9906" stroke-miterlimit="10" x1="56.9" y1="139.2" x2="56.9" y2="146.9"/>
	<line fill="none" stroke="#000000" stroke-width="2.9906" stroke-miterlimit="10" x1="71.7" y1="143.8" x2="71.6" y2="150.8"/>
	<line fill="none" stroke="#000000" stroke-width="2.9906" stroke-miterlimit="10" x1="89.4" y1="146.4" x2="89.1" y2="153"/>
	<line fill="none" stroke="#000000" stroke-width="2.9906" stroke-miterlimit="10" x1="107.7" y1="146.4" x2="108" y2="152"/>
	<line fill="none" stroke="#000000" stroke-width="2.9906" stroke-miterlimit="10" x1="122.7" y1="144.4" x2="123.2" y2="151"/>
	<line fill="none" stroke="#000000" stroke-width="2.9906" stroke-miterlimit="10" x1="137.3" y1="140.5" x2="138.1" y2="147.5"/>
	<line fill="none" stroke="#000000" stroke-width="2.9906" stroke-miterlimit="10" x1="151.6" y1="134.5" x2="152.4" y2="142.1"/>
	<line fill="none" stroke="#000000" stroke-width="2.9906" stroke-miterlimit="10" x1="164.2" y1="126.6" x2="164.3" y2="135.4"/>
	<line fill="none" stroke="#000000" stroke-width="2.9906" stroke-miterlimit="10" x1="174.4" y1="117.3" x2="175.5" y2="126"/>
	<line fill="none" stroke="#000000" stroke-width="2.9906" stroke-miterlimit="10" x1="181.2" y1="107.8" x2="182.3" y2="116.9"/>
</g>
<g>
	<path fill="#FFFFFF" stroke="#000000" stroke-width="2.9906" stroke-miterlimit="10" d="M201.7,73.6c1.6,31.8-35.4,56.1-82.4,58.4
		c-47,2.3-86.2-18.1-87.8-49.9"/>
	
		<ellipse transform="matrix(0.9988 -4.977237e-02 4.977237e-02 0.9988 -3.2365 5.863)" fill="#FFFFFF" stroke="#000000" stroke-width="2.9906" stroke-miterlimit="10" cx="116.1" cy="67.9" rx="85.2" ry="57.7"/>
	
		<ellipse transform="matrix(0.9988 -4.977237e-02 4.977237e-02 0.9988 -3.2365 5.863)" fill="#FFFFFF" stroke="#000000" stroke-width="1.7944" stroke-miterlimit="10" cx="116.1" cy="67.9" rx="74" ry="50.1"/>
	<line fill="none" stroke="#000000" stroke-width="2.9906" stroke-miterlimit="10" x1="31.5" y1="82.9" x2="31" y2="72.2"/>
	<line fill="none" stroke="#000000" stroke-width="2.9906" stroke-miterlimit="10" x1="201.8" y1="74.4" x2="201.2" y2="63.7"/>
	<line fill="none" stroke="#000000" stroke-width="2.9906" stroke-miterlimit="10" x1="40.2" y1="96.2" x2="40.4" y2="105.8"/>
	<line fill="none" stroke="#000000" stroke-width="2.9906" stroke-miterlimit="10" x1="53.2" y1="108.5" x2="53.3" y2="117.2"/>
	<line fill="none" stroke="#000000" stroke-width="2.9906" stroke-miterlimit="10" x1="71.1" y1="118.2" x2="71.1" y2="125.8"/>
	<line fill="none" stroke="#000000" stroke-width="2.9906" stroke-miterlimit="10" x1="86" y1="122.7" x2="85.9" y2="129.8"/>
	<line fill="none" stroke="#000000" stroke-width="2.9906" stroke-miterlimit="10" x1="103.7" y1="125.4" x2="103.3" y2="131.9"/>
	<line fill="none" stroke="#000000" stroke-width="2.9906" stroke-miterlimit="10" x1="122" y1="125.4" x2="122.3" y2="131"/>
	<line fill="none" stroke="#000000" stroke-width="2.9906" stroke-miterlimit="10" x1="137" y1="123.3" x2="137.4" y2="130"/>
	<line fill="none" stroke="#000000" stroke-width="2.9906" stroke-miterlimit="10" x1="151.5" y1="119.5" x2="152.3" y2="126.5"/>
	<line fill="none" stroke="#000000" stroke-width="2.9906" stroke-miterlimit="10" x1="165.9" y1="113.4" x2="166.6" y2="121.1"/>
	<line fill="none" stroke="#000000" stroke-width="2.9906" stroke-miterlimit="10" x1="178.5" y1="105.5" x2="178.6" y2="114.4"/>
	<line fill="none" stroke="#000000" stroke-width="2.9906" stroke-miterlimit="10" x1="188.7" y1="96.2" x2="189.7" y2="105"/>
	<line fill="none" stroke="#000000" stroke-width="2.9906" stroke-miterlimit="10" x1="195.5" y1="86.8" x2="196.6" y2="95.8"/>
</g>
<g>
	<g>
		<g>
			<path fill="#FFFFFF" d="M107,64.6l0.4-1.6l0.6,0.1c0.5,0.1,0.9,0.1,1.4,0.1c0.5,0,1-0.1,1.4-0.2c0.7-0.2,1.3-0.5,1.6-0.9
				c0.2-0.3,0.4-0.6,0.6-1.1c0.2-0.5,0.4-1,0.5-1.5c0.4-1.7,0.8-3.4,1.2-4.9l3-13.3c-0.7,0.9-1.3,1.8-1.9,2.6
				c-1.1,1.5-2.2,2.9-3.2,4.3c-1.1,1.4-2.1,2.8-3.2,4.3l-3.6,4.8c-0.2,0.2-0.5,0.6-0.8,1.1c-0.4,0.5-0.7,1-1.1,1.6
				c-0.4,0.5-0.7,1-1,1.5c-0.3,0.4-0.5,0.7-0.6,0.8l-0.2,0.4l-1-0.2l-1.3-6.8c-0.4-2.1-0.8-4.1-1.2-6.1c-0.4-2-0.7-3.8-1.1-5.5
				c-0.3-1.7-0.6-3.2-0.9-4.6c-0.2-0.9-0.4-1.7-0.5-2.4c-0.2,0.7-0.3,1.3-0.4,1.8l-0.9,3.9c-0.3,1.3-0.6,2.7-1,4.1l-1.1,5.1
				c-0.3,1.2-0.5,2.3-0.6,3.2c-0.1,0.8-0.1,1.6,0.1,2.2c0.1,0.6,0.5,1.1,0.9,1.5c0.5,0.5,1.3,0.9,2.3,1.3l0.5,0.2l-0.3,1.5
				l-11.5-2.6l0.3-1.5l0.8,0c0.8,0,1.4-0.1,2-0.3c0.6-0.2,1-0.5,1.5-1c0.4-0.5,0.8-1.2,1.2-2c0.4-0.9,0.7-2,1-3.3
				c0.3-1.1,0.7-2.5,1-4c0.4-1.5,0.8-3.2,1.2-4.9l1.1-5c0.1-0.5,0.2-1.2,0.4-1.9c0.1-0.6,0.1-1.2,0-1.6c-0.2-0.4-0.4-0.8-0.7-1.1
				c-0.3-0.3-0.6-0.6-1-0.7c-0.4-0.2-0.7-0.4-1-0.5l-0.5-0.2l0.3-1.5l9.4,2.1l4.4,22.7c1.4-1.9,2.9-3.8,4.3-5.6
				c1.7-2.2,3.2-4.2,4.5-6c1.3-1.8,2.4-3.3,3.3-4.5c0.9-1.2,1.4-1.9,1.5-2.1l0.2-0.3l9.4,2.1l-0.4,1.5l-0.6-0.1
				c-0.4-0.1-0.8-0.1-1.2-0.1c-0.4,0-0.8,0.1-1.1,0.2c-0.6,0.2-1,0.6-1.2,1c-0.2,0.4-0.5,1-0.7,1.9c-0.3,0.9-0.5,1.9-0.8,2.8
				c-0.3,1.3-0.6,2.5-0.9,3.7l-1.8,7.9c-0.3,1.4-0.6,2.9-1,4.4c-0.1,0.5-0.2,1-0.2,1.5c-0.1,0.6,0,0.9,0,1.1c0,0.1,0.1,0.2,0.2,0.3
				c0.1,0.2,0.3,0.4,0.5,0.7c0.2,0.3,0.5,0.5,0.9,0.8c0.4,0.2,0.9,0.4,1.4,0.6l0.6,0.1l-0.4,1.5L107,64.6z"/>
			<path d="M91.7,30.6l8.4,1.9l4.6,23.6c1.7-2.2,3.4-4.5,5.1-6.7c1.7-2.2,3.2-4.2,4.5-6c1.3-1.8,2.4-3.3,3.3-4.5
				c0.9-1.2,1.4-1.9,1.5-2.1l8.4,1.9l-0.1,0.4c-0.5-0.1-0.9-0.1-1.3-0.1c-0.5,0-1,0.1-1.3,0.3c-0.7,0.3-1.2,0.7-1.5,1.2
				c-0.3,0.4-0.5,1.1-0.8,2c-0.3,0.9-0.5,1.9-0.8,2.8c-0.3,1.3-0.6,2.5-0.9,3.7c-0.3,1.2-0.5,2.4-0.8,3.6c-0.3,1.4-0.6,2.8-1,4.3
				c-0.3,1.4-0.6,2.9-1,4.4c-0.1,0.5-0.2,1-0.2,1.5c-0.1,0.5,0,1,0.1,1.3c0,0.1,0.1,0.2,0.2,0.4c0.1,0.2,0.3,0.5,0.6,0.8
				c0.3,0.3,0.6,0.6,1.1,0.9c0.4,0.3,1,0.5,1.6,0.7l-0.1,0.4l-13.6-3.1l0.1-0.4c0.5,0.1,1,0.1,1.5,0.1c0.6,0,1.1-0.1,1.5-0.2
				c0.9-0.2,1.5-0.6,1.9-1.1c0.2-0.3,0.5-0.7,0.6-1.2c0.2-0.5,0.4-1,0.5-1.5c0.4-1.7,0.8-3.4,1.2-5c0.4-1.6,0.7-3.2,1.1-4.9
				l2.5-11.2c-1.3,1.8-2.5,3.4-3.6,4.8c-1.1,1.5-2.2,2.9-3.2,4.3c-1.1,1.4-2.1,2.8-3.2,4.3c-1.1,1.5-2.3,3.1-3.6,4.8
				c-0.2,0.2-0.5,0.6-0.8,1.1c-0.4,0.5-0.7,1-1.1,1.6c-0.4,0.5-0.7,1-1,1.5c-0.3,0.4-0.5,0.7-0.6,0.9l-0.2-0.1
				c-0.4-2.1-0.8-4.3-1.2-6.4c-0.4-2.1-0.8-4.1-1.2-6.1c-0.4-2-0.7-3.8-1.1-5.5c-0.3-1.7-0.6-3.2-0.9-4.6c-0.3-1.3-0.5-2.5-0.7-3.4
				c-0.2-0.9-0.3-1.5-0.4-1.8c-0.4,1.7-0.7,3.3-1.1,4.6c-0.3,1.3-0.6,2.6-0.9,3.9c-0.3,1.3-0.6,2.7-1,4.1c-0.3,1.4-0.7,3.1-1.1,5.1
				c-0.3,1.2-0.5,2.3-0.6,3.2C91,56.2,91,57,91.2,57.7c0.2,0.7,0.5,1.3,1.1,1.8c0.6,0.5,1.4,1,2.5,1.4l-0.1,0.4l-10.3-2.3l0.1-0.4
				c0.1,0,0.2,0,0.3,0c0.8,0,1.6-0.1,2.2-0.3c0.7-0.2,1.2-0.6,1.7-1.2c0.5-0.6,0.9-1.3,1.3-2.2c0.4-0.9,0.7-2,1.1-3.4
				c0.3-1.1,0.7-2.4,1-4c0.4-1.5,0.8-3.2,1.2-5c0.2-0.8,0.3-1.4,0.4-1.9c0.1-0.5,0.2-1,0.3-1.5c0.1-0.5,0.2-1,0.3-1.5
				c0.1-0.5,0.3-1.2,0.4-1.9c0.1-0.7,0.1-1.4-0.1-1.9c-0.2-0.5-0.4-1-0.8-1.3c-0.3-0.4-0.7-0.6-1.1-0.9c-0.4-0.2-0.8-0.4-1.1-0.5
				L91.7,30.6 M90.8,29.2l-0.3,1.2l-0.1,0.4l-0.2,1l0.9,0.4c0.3,0.1,0.6,0.3,1,0.5c0.3,0.2,0.6,0.4,0.8,0.6c0.2,0.2,0.4,0.5,0.5,0.9
				c0.1,0.3,0.1,0.8,0,1.3c-0.1,0.8-0.3,1.4-0.4,1.9L92.9,38l-0.2,0.8l-0.3,1.5l-0.2,0.8L92,42.3c-0.4,1.7-0.8,3.4-1.2,4.9
				c-0.4,1.5-0.7,2.8-1,4c-0.3,1.3-0.7,2.4-1,3.2c-0.3,0.8-0.7,1.4-1.1,1.8c-0.3,0.4-0.7,0.7-1.2,0.8c-0.5,0.2-1.1,0.2-1.8,0.2
				c-0.1,0-0.2,0-0.3,0l-1,0l-0.2,1l-0.1,0.4l-0.3,1.2l1.2,0.3l10.3,2.3l1.2,0.3l0.3-1.2l0.1-0.4l0.2-1l-1-0.4
				c-1-0.4-1.7-0.7-2.1-1.2c-0.4-0.3-0.6-0.7-0.7-1.2c-0.1-0.5-0.2-1.2,0-2c0.1-0.9,0.3-1.9,0.6-3.1l0.5-2l0.7-3
				c0.3-1.4,0.6-2.8,1-4.1l0.2-0.9l0.5-2.3c0.3,1.3,0.6,2.7,0.9,4.3c0.3,1.7,0.7,3.5,1.1,5.5c0.4,1.9,0.8,4,1.2,6.1
				c0.4,2.1,0.8,4.2,1.2,6.4l0.1,0.8l0.8,0.2l0.2,0.1l0.8,0.2l0.4-0.7c0-0.1,0.1-0.2,0.6-0.8c0.3-0.4,0.7-0.9,1.1-1.5
				c0.4-0.5,0.7-1.1,1.1-1.6c0.3-0.5,0.6-0.8,0.8-1.1l0,0l0,0c1.3-1.8,2.5-3.4,3.6-4.8c1.1-1.5,2.2-2.9,3.2-4.3
				c1.1-1.4,2.1-2.8,3.2-4.3c0.1-0.1,0.2-0.2,0.2-0.3l-1.3,5.7L115,50l-1,4.6c-0.4,1.6-0.8,3.2-1.2,4.9c-0.1,0.5-0.3,0.9-0.5,1.4
				c-0.2,0.4-0.3,0.7-0.5,0.9c-0.2,0.3-0.7,0.5-1.3,0.7c-0.4,0.1-0.8,0.2-1.2,0.2c-0.4,0-0.8,0-1.3-0.1l-1.1-0.2l-0.3,1.1l-0.1,0.4
				l-0.3,1.2l1.2,0.3l13.6,3.1l1.2,0.3l0.3-1.2l0.1-0.4l0.3-1.1l-1.1-0.3c-0.5-0.1-0.9-0.3-1.3-0.5c-0.3-0.2-0.6-0.4-0.8-0.7
				c-0.2-0.3-0.4-0.5-0.4-0.6c-0.1-0.1-0.1-0.2-0.1-0.2c0-0.1-0.1-0.4,0-0.8c0-0.5,0.1-0.9,0.2-1.4c0.3-1.5,0.6-3,1-4.4l0.4-1.9
				l0.5-2.3l0.6-2.6l0.2-1c0.3-1.2,0.6-2.4,0.9-3.6c0.2-0.9,0.5-1.8,0.7-2.7c0.3-1.1,0.5-1.5,0.7-1.7c0.2-0.3,0.5-0.6,1-0.8
				c0.2-0.1,0.5-0.1,0.9-0.1c0.3,0,0.7,0,1,0.1l1.1,0.2l0.3-1.1l0.1-0.4l0.3-1.2l-1.2-0.3l-8.4-1.9l-0.8-0.2l-0.5,0.7
				c-0.1,0.1-0.4,0.6-1.5,2c-0.9,1.2-2,2.7-3.3,4.5c-1.3,1.8-2.8,3.8-4.5,6c-1.1,1.5-2.3,3-3.5,4.6l-4.1-21l-0.1-0.8l-0.8-0.2
				L92,29.5L90.8,29.2L90.8,29.2z"/>
		</g>
	</g>
	<g>
		<g>
			<path fill="#FFFFFF" d="M127.8,100.4l0.3-1.4l0.6,0.1c0.3,0.1,0.6,0.1,0.9,0.1c0.3,0,0.6,0,0.9-0.1c0.5-0.1,0.8-0.3,1-0.6
				c0.1-0.2,0.3-0.4,0.4-0.7c0.1-0.3,0.2-0.7,0.3-1c0.3-1.2,0.6-2.4,0.8-3.5l1.9-8.6l-0.8,1.1c-0.8,1-1.5,2-2.3,3
				c-0.7,1-1.5,2-2.3,3l-2.5,3.4c-0.1,0.2-0.3,0.4-0.6,0.8c-0.3,0.4-0.5,0.7-0.8,1.1c-0.3,0.4-0.5,0.7-0.7,1
				c-0.2,0.3-0.3,0.5-0.4,0.6l-0.2,0.4l-1-0.2l-0.9-4.9c-0.3-1.5-0.6-2.9-0.8-4.3c-0.3-1.4-0.5-2.7-0.8-3.9
				c-0.2-1.2-0.4-2.3-0.6-3.2c-0.1-0.3-0.1-0.6-0.2-0.9c0,0.2-0.8,3.3-0.8,3.3c-0.2,0.9-0.4,1.9-0.7,2.9l-0.8,3.6
				c-0.2,0.9-0.3,1.6-0.4,2.2c-0.1,0.6-0.1,1.1,0,1.5c0.1,0.4,0.3,0.7,0.6,1c0.3,0.3,0.9,0.6,1.6,0.9l0.5,0.2l-0.3,1.4l-8.4-1.9
				l0.3-1.3l0.7,0c0.5,0,1-0.1,1.3-0.2c0.4-0.1,0.7-0.3,0.9-0.6c0.3-0.3,0.6-0.8,0.8-1.4c0.2-0.6,0.5-1.4,0.7-2.3
				c0.2-0.8,0.5-1.7,0.7-2.8c0.3-1.1,0.5-2.2,0.8-3.5l0.8-3.5c0.1-0.4,0.2-0.8,0.3-1.3c0.1-0.4,0.1-0.8,0-1
				c-0.1-0.3-0.2-0.5-0.4-0.7c-0.2-0.2-0.4-0.4-0.6-0.5c-0.3-0.1-0.5-0.3-0.7-0.3l-0.5-0.2l0.3-1.4l6.9,1.6l3,15.7
				c0.9-1.2,1.9-2.4,2.8-3.6c1.2-1.6,2.2-3,3.2-4.2c0.9-1.3,1.7-2.3,2.3-3.2c0.6-0.8,0.9-1.3,1-1.5l0.2-0.3l6.9,1.6l-0.3,1.4
				l-0.6-0.1c-0.3-0.1-0.5-0.1-0.8-0.1c-0.3,0-0.5,0-0.7,0.1c-0.4,0.2-0.6,0.4-0.8,0.6c-0.1,0.2-0.3,0.5-0.5,1.3
				c-0.2,0.7-0.4,1.3-0.5,1.9c-0.2,0.9-0.4,1.7-0.6,2.6l-1.3,5.5c-0.2,1-0.4,2-0.7,3.1c-0.1,0.3-0.1,0.7-0.2,1c0,0.4,0,0.6,0,0.7
				c0,0,0,0.1,0.1,0.2c0,0.1,0.1,0.2,0.3,0.4c0.1,0.2,0.4,0.3,0.6,0.5c0.3,0.2,0.6,0.3,1,0.4l0.6,0.1l-0.3,1.4L127.8,100.4z"/>
			<path d="M117.2,76.4l5.9,1.3l3.2,16.6c1.2-1.6,2.4-3.1,3.6-4.7c1.2-1.6,2.2-3,3.2-4.2c0.9-1.3,1.7-2.3,2.3-3.2
				c0.6-0.8,1-1.3,1-1.5l5.9,1.3l-0.1,0.3c-0.3-0.1-0.6-0.1-0.9-0.1c-0.4,0-0.7,0.1-0.9,0.2c-0.5,0.2-0.8,0.5-1.1,0.9
				c-0.2,0.3-0.4,0.8-0.6,1.4c-0.2,0.7-0.4,1.3-0.5,2c-0.2,0.9-0.4,1.7-0.6,2.6c-0.2,0.8-0.4,1.7-0.6,2.5c-0.2,1-0.5,2-0.7,3
				c-0.2,1-0.4,2-0.7,3.1c-0.1,0.4-0.1,0.7-0.2,1.1c0,0.4,0,0.7,0,0.9c0,0,0.1,0.1,0.1,0.3c0.1,0.2,0.2,0.4,0.4,0.6
				c0.2,0.2,0.4,0.4,0.7,0.6c0.3,0.2,0.7,0.4,1.1,0.5l-0.1,0.3l-9.5-2.2l0.1-0.3c0.4,0.1,0.7,0.1,1,0.1c0.4,0,0.8,0,1.1-0.1
				c0.6-0.2,1-0.4,1.3-0.8c0.2-0.2,0.3-0.5,0.5-0.8c0.1-0.3,0.3-0.7,0.4-1.1c0.3-1.2,0.6-2.4,0.8-3.5c0.3-1.1,0.5-2.3,0.8-3.4
				l1.8-7.9c-0.9,1.2-1.8,2.4-2.5,3.4c-0.8,1-1.5,2-2.3,3c-0.7,1-1.5,2-2.3,3c-0.8,1-1.6,2.2-2.5,3.4c-0.1,0.2-0.3,0.4-0.6,0.8
				c-0.3,0.4-0.5,0.7-0.8,1.1c-0.3,0.4-0.5,0.7-0.7,1c-0.2,0.3-0.4,0.5-0.4,0.6l-0.2,0c-0.3-1.5-0.6-3-0.8-4.5
				c-0.3-1.5-0.6-2.9-0.8-4.3s-0.5-2.7-0.8-3.9c-0.2-1.2-0.4-2.3-0.6-3.2c-0.2-0.9-0.4-1.7-0.5-2.4c-0.1-0.6-0.2-1.1-0.2-1.3
				c-0.3,1.2-0.5,2.3-0.7,3.2c-0.2,0.9-0.4,1.9-0.7,2.8c-0.2,0.9-0.4,1.9-0.7,2.9c-0.2,1-0.5,2.2-0.8,3.6c-0.2,0.9-0.3,1.6-0.4,2.3
				c-0.1,0.7-0.1,1.2,0.1,1.7c0.1,0.5,0.4,0.9,0.8,1.3c0.4,0.4,1,0.7,1.8,1l-0.1,0.3l-7.2-1.6l0.1-0.3c0.1,0,0.1,0,0.2,0
				c0.6,0,1.1-0.1,1.5-0.2c0.5-0.2,0.9-0.4,1.2-0.8c0.3-0.4,0.6-0.9,0.9-1.5c0.3-0.6,0.5-1.4,0.7-2.4c0.2-0.8,0.5-1.7,0.7-2.8
				c0.3-1.1,0.5-2.2,0.8-3.5c0.1-0.5,0.2-1,0.3-1.4c0.1-0.4,0.2-0.7,0.2-1.1c0.1-0.4,0.2-0.7,0.2-1.1c0.1-0.4,0.2-0.8,0.3-1.4
				c0.1-0.5,0.1-1,0-1.3c-0.1-0.4-0.3-0.7-0.5-0.9c-0.2-0.2-0.5-0.4-0.8-0.6c-0.3-0.2-0.6-0.3-0.8-0.4L117.2,76.4 M116.3,74.9
				l-0.3,1.2l-0.1,0.3l-0.2,1l0.9,0.4c0.2,0.1,0.4,0.2,0.7,0.3c0.2,0.1,0.3,0.2,0.5,0.4c0.1,0.1,0.2,0.3,0.3,0.5
				c0,0.1,0.1,0.3,0,0.7c-0.1,0.5-0.2,1-0.3,1.3l-0.1,0.4l-0.2,0.7l-0.2,1.1l-0.2,0.8l-0.1,0.6c-0.3,1.2-0.6,2.4-0.8,3.5
				c-0.3,1.1-0.5,2-0.7,2.8c-0.2,0.9-0.5,1.6-0.7,2.2c-0.2,0.5-0.4,0.9-0.7,1.2c-0.2,0.2-0.4,0.4-0.7,0.5c-0.3,0.1-0.7,0.1-1.1,0.1
				l-0.2,0l-1,0l-0.2,1l-0.1,0.3l-0.3,1.2l1.2,0.3L119,99l1.2,0.3l0.3-1.2l0.1-0.3l0.2-1l-1-0.4c-0.8-0.3-1.2-0.6-1.4-0.7
				c-0.2-0.2-0.4-0.4-0.4-0.7c-0.1-0.3-0.1-0.8,0-1.2c0.1-0.6,0.2-1.3,0.4-2.2l0.3-1.3l0.5-2.2c0.2-1,0.5-2,0.7-2.9l0.1-0.6l0-0.1
				c0.1,0.5,0.2,0.9,0.3,1.4c0.2,1.2,0.5,2.5,0.8,3.9c0.3,1.4,0.5,2.8,0.8,4.3l0.8,4.5l0.1,0.8l0.8,0.2l0.2,0l0.8,0.2l0.4-0.7
				c0.1-0.1,0.2-0.3,0.4-0.5c0.2-0.3,0.5-0.7,0.7-1.1c0.3-0.4,0.5-0.7,0.8-1.1c0.2-0.3,0.4-0.6,0.5-0.7l0,0l0,0l2.5-3.4
				c0.8-1,1.5-2,2.3-3c0.5-0.6,1-1.3,1.4-1.9l-0.5,2.4l-0.8,3.4c-0.2,1.1-0.5,2.2-0.8,3.5c-0.1,0.3-0.2,0.6-0.3,0.9
				c-0.1,0.3-0.2,0.5-0.3,0.6c-0.1,0.1-0.2,0.2-0.7,0.4c-0.2,0.1-0.5,0.1-0.8,0.1c-0.3,0-0.5,0-0.8-0.1l-1.1-0.2l-0.3,1.1l-0.1,0.3
				l-0.3,1.2l1.2,0.3l9.5,2.2l1.2,0.3l0.3-1.2l0.1-0.3l0.3-1.1l-1.1-0.3c-0.3-0.1-0.6-0.2-0.8-0.3c-0.2-0.1-0.4-0.3-0.5-0.4
				c-0.2-0.2-0.2-0.3-0.2-0.3c0,0,0-0.1-0.1-0.1c0-0.1,0-0.2,0-0.4c0-0.3,0.1-0.6,0.1-0.9c0.2-1.1,0.5-2.1,0.7-3.1l0.3-1.2l0.4-1.8
				l0.6-2.5c0.2-0.8,0.4-1.7,0.6-2.6c0.2-0.6,0.3-1.3,0.5-1.9c0.2-0.7,0.4-1,0.4-1.1c0.1-0.2,0.3-0.3,0.5-0.4c0.1,0,0.3-0.1,0.5-0.1
				c0.2,0,0.4,0,0.7,0.1l1.1,0.2l0.3-1.1l0.1-0.3l0.3-1.2l-1.2-0.3l-5.9-1.3l-0.8-0.2l-0.5,0.7c0,0.1-0.2,0.3-1,1.4
				c-0.6,0.8-1.4,1.9-2.3,3.2c-0.9,1.3-2,2.7-3.2,4.2c-0.6,0.9-1.3,1.7-2,2.6l-2.7-14l-0.1-0.8l-0.8-0.2l-5.9-1.3L116.3,74.9
				L116.3,74.9z"/>
		</g>
	</g>
	<line fill="none" stroke="#000000" stroke-width="1.1963" stroke-miterlimit="10" x1="96.4" y1="67.9" x2="142.9" y2="78.5"/>
</g>
</svg>
