<?xml version="1.0" encoding="utf-8"?>
<!-- Generator: Adobe Illustrator 18.0.0, SVG Export Plug-In . SVG Version: 6.00 Build 0)  -->
<!DOCTYPE svg PUBLIC "-//W3C//DTD SVG 1.1//EN" "http://www.w3.org/Graphics/SVG/1.1/DTD/svg11.dtd">
<svg version="1.1" id="Layer_1" xmlns="http://www.w3.org/2000/svg" xmlns:xlink="http://www.w3.org/1999/xlink" x="0px" y="0px"
	 viewBox="0 0 1032 472" enable-background="new 0 0 1032 472" xml:space="preserve">
<text transform="matrix(1 0 0 1 280.9531 202.4364)"><tspan x="0" y="0" fill="#FFFFFF" font-family="'LetterGothicStd-Bold'" font-size="151.2288">Midas</tspan><tspan x="0" y="181.5" fill="#FFFFFF" font-family="'LetterGothicStd-Bold'" font-size="151.2288">Merchant</tspan></text>
<g>
	<path fill="#FFFFFF" stroke="#000000" stroke-width="2.9906" stroke-miterlimit="10" d="M217.4,388.3c1.6,31.8-35.4,56.1-82.4,58.4
		c-47,2.3-86.2-18.1-87.8-49.9"/>
	
		<ellipse transform="matrix(0.9988 -4.977237e-02 4.977237e-02 0.9988 -18.8822 7.0308)" fill="#FFFFFF" stroke="#000000" stroke-width="2.9906" stroke-miterlimit="10" cx="131.7" cy="382.7" rx="85.2" ry="57.7"/>
	<line fill="none" stroke="#000000" stroke-width="2.9906" stroke-miterlimit="10" x1="47.1" y1="397.6" x2="46.6" y2="386.9"/>
	<line fill="none" stroke="#000000" stroke-width="2.9906" stroke-miterlimit="10" x1="217.4" y1="389.2" x2="216.9" y2="378.4"/>
	<line fill="none" stroke="#000000" stroke-width="2.9906" stroke-miterlimit="10" x1="55.8" y1="410.9" x2="56" y2="420.5"/>
	<line fill="none" stroke="#000000" stroke-width="2.9906" stroke-miterlimit="10" x1="68.8" y1="423.3" x2="68.9" y2="432"/>
	<line fill="none" stroke="#000000" stroke-width="2.9906" stroke-miterlimit="10" x1="86.8" y1="432.9" x2="86.7" y2="440.6"/>
	<line fill="none" stroke="#000000" stroke-width="2.9906" stroke-miterlimit="10" x1="101.6" y1="437.5" x2="101.5" y2="444.5"/>
	<line fill="none" stroke="#000000" stroke-width="2.9906" stroke-miterlimit="10" x1="119.3" y1="440.1" x2="119" y2="446.7"/>
	<line fill="none" stroke="#000000" stroke-width="2.9906" stroke-miterlimit="10" x1="137.6" y1="440.1" x2="137.9" y2="445.7"/>
	<line fill="none" stroke="#000000" stroke-width="2.9906" stroke-miterlimit="10" x1="152.6" y1="438.1" x2="153.1" y2="444.7"/>
	<line fill="none" stroke="#000000" stroke-width="2.9906" stroke-miterlimit="10" x1="167.1" y1="434.2" x2="167.9" y2="441.2"/>
	<line fill="none" stroke="#000000" stroke-width="2.9906" stroke-miterlimit="10" x1="181.5" y1="428.2" x2="182.2" y2="435.8"/>
	<line fill="none" stroke="#000000" stroke-width="2.9906" stroke-miterlimit="10" x1="194.1" y1="420.3" x2="194.2" y2="429.1"/>
	<line fill="none" stroke="#000000" stroke-width="2.9906" stroke-miterlimit="10" x1="204.3" y1="410.9" x2="205.4" y2="419.7"/>
	<line fill="none" stroke="#000000" stroke-width="2.9906" stroke-miterlimit="10" x1="211.1" y1="401.5" x2="212.2" y2="410.6"/>
</g>
<g>
	<path fill="#FFFFFF" stroke="#000000" stroke-width="2.9906" stroke-miterlimit="10" d="M217.4,363c1.6,31.8-35.4,56.1-82.4,58.4
		c-47,2.3-86.2-18.1-87.8-49.9"/>
	
		<ellipse transform="matrix(0.9988 -4.977237e-02 4.977237e-02 0.9988 -17.6217 6.9994)" fill="#FFFFFF" stroke="#000000" stroke-width="2.9906" stroke-miterlimit="10" cx="131.7" cy="357.3" rx="85.2" ry="57.7"/>
	<line fill="none" stroke="#000000" stroke-width="2.9906" stroke-miterlimit="10" x1="47.1" y1="372.3" x2="46.6" y2="361.6"/>
	<line fill="none" stroke="#000000" stroke-width="2.9906" stroke-miterlimit="10" x1="217.4" y1="363.8" x2="216.9" y2="353.1"/>
	<line fill="none" stroke="#000000" stroke-width="2.9906" stroke-miterlimit="10" x1="55.8" y1="385.6" x2="56" y2="395.2"/>
	<line fill="none" stroke="#000000" stroke-width="2.9906" stroke-miterlimit="10" x1="68.8" y1="398" x2="68.9" y2="406.7"/>
	<line fill="none" stroke="#000000" stroke-width="2.9906" stroke-miterlimit="10" x1="86.8" y1="407.6" x2="86.7" y2="415.2"/>
	<line fill="none" stroke="#000000" stroke-width="2.9906" stroke-miterlimit="10" x1="101.6" y1="412.2" x2="101.5" y2="419.2"/>
	<line fill="none" stroke="#000000" stroke-width="2.9906" stroke-miterlimit="10" x1="119.3" y1="414.8" x2="119" y2="421.3"/>
	<line fill="none" stroke="#000000" stroke-width="2.9906" stroke-miterlimit="10" x1="137.6" y1="414.8" x2="137.9" y2="420.4"/>
	<line fill="none" stroke="#000000" stroke-width="2.9906" stroke-miterlimit="10" x1="152.6" y1="412.7" x2="153.1" y2="419.4"/>
	<line fill="none" stroke="#000000" stroke-width="2.9906" stroke-miterlimit="10" x1="167.1" y1="408.9" x2="167.9" y2="415.9"/>
	<line fill="none" stroke="#000000" stroke-width="2.9906" stroke-miterlimit="10" x1="181.5" y1="402.8" x2="182.2" y2="410.5"/>
	<line fill="none" stroke="#000000" stroke-width="2.9906" stroke-miterlimit="10" x1="194.1" y1="395" x2="194.2" y2="403.8"/>
	<line fill="none" stroke="#000000" stroke-width="2.9906" stroke-miterlimit="10" x1="204.3" y1="385.6" x2="205.4" y2="394.4"/>
	<line fill="none" stroke="#000000" stroke-width="2.9906" stroke-miterlimit="10" x1="211.1" y1="376.2" x2="212.2" y2="385.2"/>
</g>
<g>
	<path fill="#FFFFFF" stroke="#000000" stroke-width="2.9906" stroke-miterlimit="10" d="M217.4,334.3c1.6,31.8-35.4,56.1-82.4,58.4
		s-86.2-18.1-87.8-49.9"/>
	
		<ellipse transform="matrix(0.9988 -4.977237e-02 4.977237e-02 0.9988 -16.1932 6.9638)" fill="#FFFFFF" stroke="#000000" stroke-width="2.9906" stroke-miterlimit="10" cx="131.7" cy="328.6" rx="85.2" ry="57.7"/>
	<line fill="none" stroke="#000000" stroke-width="2.9906" stroke-miterlimit="10" x1="47.1" y1="343.6" x2="46.6" y2="332.9"/>
	<line fill="none" stroke="#000000" stroke-width="2.9906" stroke-miterlimit="10" x1="217.4" y1="335.1" x2="216.9" y2="324.4"/>
	<line fill="none" stroke="#000000" stroke-width="2.9906" stroke-miterlimit="10" x1="55.8" y1="356.9" x2="56" y2="366.5"/>
	<line fill="none" stroke="#000000" stroke-width="2.9906" stroke-miterlimit="10" x1="68.8" y1="369.3" x2="68.9" y2="378"/>
	<line fill="none" stroke="#000000" stroke-width="2.9906" stroke-miterlimit="10" x1="86.8" y1="378.9" x2="86.7" y2="386.5"/>
	<line fill="none" stroke="#000000" stroke-width="2.9906" stroke-miterlimit="10" x1="101.6" y1="383.4" x2="101.5" y2="390.5"/>
	<line fill="none" stroke="#000000" stroke-width="2.9906" stroke-miterlimit="10" x1="119.3" y1="386.1" x2="119" y2="392.6"/>
	<line fill="none" stroke="#000000" stroke-width="2.9906" stroke-miterlimit="10" x1="137.6" y1="386.1" x2="137.9" y2="391.7"/>
	<line fill="none" stroke="#000000" stroke-width="2.9906" stroke-miterlimit="10" x1="152.6" y1="384" x2="153.1" y2="390.7"/>
	<line fill="none" stroke="#000000" stroke-width="2.9906" stroke-miterlimit="10" x1="167.1" y1="380.2" x2="167.9" y2="387.2"/>
	<line fill="none" stroke="#000000" stroke-width="2.9906" stroke-miterlimit="10" x1="181.5" y1="374.1" x2="182.2" y2="381.8"/>
	<line fill="none" stroke="#000000" stroke-width="2.9906" stroke-miterlimit="10" x1="194.1" y1="366.3" x2="194.2" y2="375.1"/>
	<line fill="none" stroke="#000000" stroke-width="2.9906" stroke-miterlimit="10" x1="204.3" y1="356.9" x2="205.4" y2="365.7"/>
	<line fill="none" stroke="#000000" stroke-width="2.9906" stroke-miterlimit="10" x1="211.1" y1="347.5" x2="212.2" y2="356.5"/>
</g>
<g>
	<path fill="#FFFFFF" stroke="#000000" stroke-width="2.9906" stroke-miterlimit="10" d="M217.4,308.9c1.6,31.8-35.4,56.1-82.4,58.4
		c-47,2.3-86.2-18.1-87.8-49.9"/>
	
		<ellipse transform="matrix(0.9988 -4.977237e-02 4.977237e-02 0.9988 -14.9328 6.9324)" fill="#FFFFFF" stroke="#000000" stroke-width="2.9906" stroke-miterlimit="10" cx="131.7" cy="303.3" rx="85.2" ry="57.7"/>
	<line fill="none" stroke="#000000" stroke-width="2.9906" stroke-miterlimit="10" x1="47.1" y1="318.3" x2="46.6" y2="307.5"/>
	<line fill="none" stroke="#000000" stroke-width="2.9906" stroke-miterlimit="10" x1="217.4" y1="309.8" x2="216.9" y2="299.1"/>
	<line fill="none" stroke="#000000" stroke-width="2.9906" stroke-miterlimit="10" x1="55.8" y1="331.6" x2="56" y2="341.1"/>
	<line fill="none" stroke="#000000" stroke-width="2.9906" stroke-miterlimit="10" x1="68.8" y1="343.9" x2="68.9" y2="352.6"/>
	<line fill="none" stroke="#000000" stroke-width="2.9906" stroke-miterlimit="10" x1="86.8" y1="353.5" x2="86.7" y2="361.2"/>
	<line fill="none" stroke="#000000" stroke-width="2.9906" stroke-miterlimit="10" x1="101.6" y1="358.1" x2="101.5" y2="365.1"/>
	<line fill="none" stroke="#000000" stroke-width="2.9906" stroke-miterlimit="10" x1="119.3" y1="360.8" x2="119" y2="367.3"/>
	<line fill="none" stroke="#000000" stroke-width="2.9906" stroke-miterlimit="10" x1="137.6" y1="360.8" x2="137.9" y2="366.4"/>
	<line fill="none" stroke="#000000" stroke-width="2.9906" stroke-miterlimit="10" x1="152.6" y1="358.7" x2="153.1" y2="365.3"/>
	<line fill="none" stroke="#000000" stroke-width="2.9906" stroke-miterlimit="10" x1="167.1" y1="354.9" x2="167.9" y2="361.8"/>
	<line fill="none" stroke="#000000" stroke-width="2.9906" stroke-miterlimit="10" x1="181.5" y1="348.8" x2="182.2" y2="356.4"/>
	<line fill="none" stroke="#000000" stroke-width="2.9906" stroke-miterlimit="10" x1="194.1" y1="340.9" x2="194.2" y2="349.8"/>
	<line fill="none" stroke="#000000" stroke-width="2.9906" stroke-miterlimit="10" x1="204.3" y1="331.6" x2="205.4" y2="340.4"/>
	<line fill="none" stroke="#000000" stroke-width="2.9906" stroke-miterlimit="10" x1="211.1" y1="322.2" x2="212.2" y2="331.2"/>
</g>
<g>
	<path fill="#FFFFFF" stroke="#000000" stroke-width="2.9906" stroke-miterlimit="10" d="M208.9,292.1c1.6,31.8-35.4,56.1-82.4,58.4
		c-47,2.3-86.2-18.1-87.8-49.9"/>
	
		<ellipse transform="matrix(0.9988 -4.977237e-02 4.977237e-02 0.9988 -14.1029 6.4914)" fill="#FFFFFF" stroke="#000000" stroke-width="2.9906" stroke-miterlimit="10" cx="123.3" cy="286.4" rx="85.2" ry="57.7"/>
	<line fill="none" stroke="#000000" stroke-width="2.9906" stroke-miterlimit="10" x1="38.7" y1="301.4" x2="38.2" y2="290.7"/>
	<line fill="none" stroke="#000000" stroke-width="2.9906" stroke-miterlimit="10" x1="209" y1="292.9" x2="208.4" y2="282.2"/>
	<line fill="none" stroke="#000000" stroke-width="2.9906" stroke-miterlimit="10" x1="47.4" y1="314.7" x2="47.6" y2="324.3"/>
	<line fill="none" stroke="#000000" stroke-width="2.9906" stroke-miterlimit="10" x1="60.4" y1="327.1" x2="60.5" y2="335.7"/>
	<line fill="none" stroke="#000000" stroke-width="2.9906" stroke-miterlimit="10" x1="78.3" y1="336.7" x2="78.3" y2="344.3"/>
	<line fill="none" stroke="#000000" stroke-width="2.9906" stroke-miterlimit="10" x1="93.2" y1="341.2" x2="93.1" y2="348.3"/>
	<line fill="none" stroke="#000000" stroke-width="2.9906" stroke-miterlimit="10" x1="110.8" y1="343.9" x2="110.5" y2="350.4"/>
	<line fill="none" stroke="#000000" stroke-width="2.9906" stroke-miterlimit="10" x1="129.2" y1="343.9" x2="129.4" y2="349.5"/>
	<line fill="none" stroke="#000000" stroke-width="2.9906" stroke-miterlimit="10" x1="144.2" y1="341.8" x2="144.6" y2="348.5"/>
	<line fill="none" stroke="#000000" stroke-width="2.9906" stroke-miterlimit="10" x1="158.7" y1="338" x2="159.5" y2="345"/>
	<line fill="none" stroke="#000000" stroke-width="2.9906" stroke-miterlimit="10" x1="173" y1="331.9" x2="173.8" y2="339.6"/>
	<line fill="none" stroke="#000000" stroke-width="2.9906" stroke-miterlimit="10" x1="185.7" y1="324" x2="185.8" y2="332.9"/>
	<line fill="none" stroke="#000000" stroke-width="2.9906" stroke-miterlimit="10" x1="195.8" y1="314.7" x2="196.9" y2="323.5"/>
	<line fill="none" stroke="#000000" stroke-width="2.9906" stroke-miterlimit="10" x1="202.6" y1="305.3" x2="203.7" y2="314.3"/>
</g>
<g>
	<path fill="#FFFFFF" stroke="#000000" stroke-width="2.9906" stroke-miterlimit="10" d="M217.4,269.9c1.6,31.8-35.4,56.1-82.4,58.4
		c-47,2.3-86.2-18.1-87.8-49.9"/>
	
		<ellipse transform="matrix(0.9988 -4.977237e-02 4.977237e-02 0.9988 -12.9911 6.8841)" fill="#FFFFFF" stroke="#000000" stroke-width="2.9906" stroke-miterlimit="10" cx="131.7" cy="264.3" rx="85.2" ry="57.7"/>
	<line fill="none" stroke="#000000" stroke-width="2.9906" stroke-miterlimit="10" x1="47.1" y1="279.3" x2="46.6" y2="268.5"/>
	<line fill="none" stroke="#000000" stroke-width="2.9906" stroke-miterlimit="10" x1="217.4" y1="270.8" x2="216.9" y2="260"/>
	<line fill="none" stroke="#000000" stroke-width="2.9906" stroke-miterlimit="10" x1="55.8" y1="292.6" x2="56" y2="302.1"/>
	<line fill="none" stroke="#000000" stroke-width="2.9906" stroke-miterlimit="10" x1="68.8" y1="304.9" x2="68.9" y2="313.6"/>
	<line fill="none" stroke="#000000" stroke-width="2.9906" stroke-miterlimit="10" x1="86.8" y1="314.5" x2="86.7" y2="322.2"/>
	<line fill="none" stroke="#000000" stroke-width="2.9906" stroke-miterlimit="10" x1="101.6" y1="319.1" x2="101.5" y2="326.1"/>
	<line fill="none" stroke="#000000" stroke-width="2.9906" stroke-miterlimit="10" x1="119.3" y1="321.7" x2="119" y2="328.3"/>
	<line fill="none" stroke="#000000" stroke-width="2.9906" stroke-miterlimit="10" x1="137.6" y1="321.8" x2="137.9" y2="327.3"/>
	<line fill="none" stroke="#000000" stroke-width="2.9906" stroke-miterlimit="10" x1="152.6" y1="319.7" x2="153.1" y2="326.3"/>
	<line fill="none" stroke="#000000" stroke-width="2.9906" stroke-miterlimit="10" x1="167.1" y1="315.8" x2="167.9" y2="322.8"/>
	<line fill="none" stroke="#000000" stroke-width="2.9906" stroke-miterlimit="10" x1="181.5" y1="309.8" x2="182.2" y2="317.4"/>
	<line fill="none" stroke="#000000" stroke-width="2.9906" stroke-miterlimit="10" x1="194.1" y1="301.9" x2="194.2" y2="310.7"/>
	<line fill="none" stroke="#000000" stroke-width="2.9906" stroke-miterlimit="10" x1="204.3" y1="292.6" x2="205.4" y2="301.4"/>
	<line fill="none" stroke="#000000" stroke-width="2.9906" stroke-miterlimit="10" x1="211.1" y1="283.2" x2="212.2" y2="292.2"/>
</g>
<g>
	<path fill="#FFFFFF" stroke="#000000" stroke-width="2.9906" stroke-miterlimit="10" d="M231.6,248.9c1.6,31.8-35.4,56.1-82.4,58.4
		c-47,2.3-86.2-18.1-87.8-49.9"/>
	
		<ellipse transform="matrix(0.9988 -4.977237e-02 4.977237e-02 0.9988 -11.9259 7.5678)" fill="#FFFFFF" stroke="#000000" stroke-width="2.9906" stroke-miterlimit="10" cx="146" cy="243.2" rx="85.2" ry="57.7"/>
	<line fill="none" stroke="#000000" stroke-width="2.9906" stroke-miterlimit="10" x1="61.4" y1="258.2" x2="60.9" y2="247.5"/>
	<line fill="none" stroke="#000000" stroke-width="2.9906" stroke-miterlimit="10" x1="231.7" y1="249.8" x2="231.1" y2="239"/>
	<line fill="none" stroke="#000000" stroke-width="2.9906" stroke-miterlimit="10" x1="70.1" y1="271.5" x2="70.3" y2="281.1"/>
	<line fill="none" stroke="#000000" stroke-width="2.9906" stroke-miterlimit="10" x1="83.1" y1="283.9" x2="83.2" y2="292.6"/>
	<line fill="none" stroke="#000000" stroke-width="2.9906" stroke-miterlimit="10" x1="101" y1="293.5" x2="101" y2="301.1"/>
	<line fill="none" stroke="#000000" stroke-width="2.9906" stroke-miterlimit="10" x1="115.9" y1="298.1" x2="115.8" y2="305.1"/>
	<line fill="none" stroke="#000000" stroke-width="2.9906" stroke-miterlimit="10" x1="133.5" y1="300.7" x2="133.2" y2="307.3"/>
	<line fill="none" stroke="#000000" stroke-width="2.9906" stroke-miterlimit="10" x1="151.9" y1="300.7" x2="152.1" y2="306.3"/>
	<line fill="none" stroke="#000000" stroke-width="2.9906" stroke-miterlimit="10" x1="166.9" y1="298.7" x2="167.3" y2="305.3"/>
	<line fill="none" stroke="#000000" stroke-width="2.9906" stroke-miterlimit="10" x1="181.4" y1="294.8" x2="182.2" y2="301.8"/>
	<line fill="none" stroke="#000000" stroke-width="2.9906" stroke-miterlimit="10" x1="195.7" y1="288.8" x2="196.5" y2="296.4"/>
	<line fill="none" stroke="#000000" stroke-width="2.9906" stroke-miterlimit="10" x1="208.4" y1="280.9" x2="208.5" y2="289.7"/>
	<line fill="none" stroke="#000000" stroke-width="2.9906" stroke-miterlimit="10" x1="218.5" y1="271.5" x2="219.6" y2="280.3"/>
	<line fill="none" stroke="#000000" stroke-width="2.9906" stroke-miterlimit="10" x1="225.3" y1="262.1" x2="226.4" y2="271.1"/>
</g>
<g>
	<path fill="#FFFFFF" stroke="#000000" stroke-width="2.9906" stroke-miterlimit="10" d="M217.4,230c1.6,31.8-35.4,56.1-82.4,58.4
		c-47,2.3-86.2-18.1-87.8-49.9"/>
	
		<ellipse transform="matrix(0.9988 -4.977237e-02 4.977237e-02 0.9988 -11.0038 6.8346)" fill="#FFFFFF" stroke="#000000" stroke-width="2.9906" stroke-miterlimit="10" cx="131.7" cy="224.4" rx="85.2" ry="57.7"/>
	<line fill="none" stroke="#000000" stroke-width="2.9906" stroke-miterlimit="10" x1="47.1" y1="239.4" x2="46.6" y2="228.6"/>
	<line fill="none" stroke="#000000" stroke-width="2.9906" stroke-miterlimit="10" x1="217.4" y1="230.9" x2="216.9" y2="220.1"/>
	<line fill="none" stroke="#000000" stroke-width="2.9906" stroke-miterlimit="10" x1="55.8" y1="252.6" x2="56" y2="262.2"/>
	<line fill="none" stroke="#000000" stroke-width="2.9906" stroke-miterlimit="10" x1="68.8" y1="265" x2="68.9" y2="273.7"/>
	<line fill="none" stroke="#000000" stroke-width="2.9906" stroke-miterlimit="10" x1="86.8" y1="274.6" x2="86.7" y2="282.3"/>
	<line fill="none" stroke="#000000" stroke-width="2.9906" stroke-miterlimit="10" x1="101.6" y1="279.2" x2="101.5" y2="286.2"/>
	<line fill="none" stroke="#000000" stroke-width="2.9906" stroke-miterlimit="10" x1="119.3" y1="281.8" x2="119" y2="288.4"/>
	<line fill="none" stroke="#000000" stroke-width="2.9906" stroke-miterlimit="10" x1="137.6" y1="281.8" x2="137.9" y2="287.4"/>
	<line fill="none" stroke="#000000" stroke-width="2.9906" stroke-miterlimit="10" x1="152.6" y1="279.8" x2="153.1" y2="286.4"/>
	<line fill="none" stroke="#000000" stroke-width="2.9906" stroke-miterlimit="10" x1="167.1" y1="275.9" x2="167.9" y2="282.9"/>
	<line fill="none" stroke="#000000" stroke-width="2.9906" stroke-miterlimit="10" x1="181.5" y1="269.9" x2="182.2" y2="277.5"/>
	<line fill="none" stroke="#000000" stroke-width="2.9906" stroke-miterlimit="10" x1="194.1" y1="262" x2="194.2" y2="270.8"/>
	<line fill="none" stroke="#000000" stroke-width="2.9906" stroke-miterlimit="10" x1="204.3" y1="252.7" x2="205.4" y2="261.4"/>
	<line fill="none" stroke="#000000" stroke-width="2.9906" stroke-miterlimit="10" x1="211.1" y1="243.2" x2="212.2" y2="252.3"/>
</g>
<g>
	<path fill="#FFFFFF" stroke="#000000" stroke-width="2.9906" stroke-miterlimit="10" d="M217.4,204.7c1.6,31.8-35.4,56.1-82.4,58.4
		c-47,2.3-86.2-18.1-87.8-49.9"/>
	
		<ellipse transform="matrix(0.9988 -4.977237e-02 4.977237e-02 0.9988 -9.7433 6.8032)" fill="#FFFFFF" stroke="#000000" stroke-width="2.9906" stroke-miterlimit="10" cx="131.7" cy="199" rx="85.2" ry="57.7"/>
	<line fill="none" stroke="#000000" stroke-width="2.9906" stroke-miterlimit="10" x1="47.1" y1="214" x2="46.6" y2="203.3"/>
	<line fill="none" stroke="#000000" stroke-width="2.9906" stroke-miterlimit="10" x1="217.4" y1="205.5" x2="216.9" y2="194.8"/>
	<line fill="none" stroke="#000000" stroke-width="2.9906" stroke-miterlimit="10" x1="55.8" y1="227.3" x2="56" y2="236.9"/>
	<line fill="none" stroke="#000000" stroke-width="2.9906" stroke-miterlimit="10" x1="68.8" y1="239.7" x2="68.9" y2="248.4"/>
	<line fill="none" stroke="#000000" stroke-width="2.9906" stroke-miterlimit="10" x1="86.8" y1="249.3" x2="86.7" y2="256.9"/>
	<line fill="none" stroke="#000000" stroke-width="2.9906" stroke-miterlimit="10" x1="101.6" y1="253.9" x2="101.5" y2="260.9"/>
	<line fill="none" stroke="#000000" stroke-width="2.9906" stroke-miterlimit="10" x1="119.3" y1="256.5" x2="119" y2="263"/>
	<line fill="none" stroke="#000000" stroke-width="2.9906" stroke-miterlimit="10" x1="137.6" y1="256.5" x2="137.9" y2="262.1"/>
	<line fill="none" stroke="#000000" stroke-width="2.9906" stroke-miterlimit="10" x1="152.6" y1="254.5" x2="153.1" y2="261.1"/>
	<line fill="none" stroke="#000000" stroke-width="2.9906" stroke-miterlimit="10" x1="167.1" y1="250.6" x2="167.9" y2="257.6"/>
	<line fill="none" stroke="#000000" stroke-width="2.9906" stroke-miterlimit="10" x1="181.5" y1="244.6" x2="182.2" y2="252.2"/>
	<line fill="none" stroke="#000000" stroke-width="2.9906" stroke-miterlimit="10" x1="194.1" y1="236.7" x2="194.2" y2="245.5"/>
	<line fill="none" stroke="#000000" stroke-width="2.9906" stroke-miterlimit="10" x1="204.3" y1="227.3" x2="205.4" y2="236.1"/>
	<line fill="none" stroke="#000000" stroke-width="2.9906" stroke-miterlimit="10" x1="211.1" y1="217.9" x2="212.2" y2="226.9"/>
</g>
<g>
	<path fill="#FFFFFF" stroke="#000000" stroke-width="2.9906" stroke-miterlimit="10" d="M217.4,176c1.6,31.8-35.4,56.1-82.4,58.4
		c-47,2.3-86.2-18.1-87.8-49.9"/>
	
		<ellipse transform="matrix(0.9988 -4.977237e-02 4.977237e-02 0.9988 -8.3148 6.7676)" fill="#FFFFFF" stroke="#000000" stroke-width="2.9906" stroke-miterlimit="10" cx="131.7" cy="170.3" rx="85.2" ry="57.7"/>
	<line fill="none" stroke="#000000" stroke-width="2.9906" stroke-miterlimit="10" x1="47.1" y1="185.3" x2="46.6" y2="174.6"/>
	<line fill="none" stroke="#000000" stroke-width="2.9906" stroke-miterlimit="10" x1="217.4" y1="176.8" x2="216.9" y2="166.1"/>
	<line fill="none" stroke="#000000" stroke-width="2.9906" stroke-miterlimit="10" x1="55.8" y1="198.6" x2="56" y2="208.2"/>
	<line fill="none" stroke="#000000" stroke-width="2.9906" stroke-miterlimit="10" x1="68.8" y1="211" x2="68.9" y2="219.7"/>
	<line fill="none" stroke="#000000" stroke-width="2.9906" stroke-miterlimit="10" x1="86.8" y1="220.6" x2="86.7" y2="228.2"/>
	<line fill="none" stroke="#000000" stroke-width="2.9906" stroke-miterlimit="10" x1="101.6" y1="225.2" x2="101.5" y2="232.2"/>
	<line fill="none" stroke="#000000" stroke-width="2.9906" stroke-miterlimit="10" x1="119.3" y1="227.8" x2="119" y2="234.3"/>
	<line fill="none" stroke="#000000" stroke-width="2.9906" stroke-miterlimit="10" x1="137.6" y1="227.8" x2="137.9" y2="233.4"/>
	<line fill="none" stroke="#000000" stroke-width="2.9906" stroke-miterlimit="10" x1="152.6" y1="225.7" x2="153.1" y2="232.4"/>
	<line fill="none" stroke="#000000" stroke-width="2.9906" stroke-miterlimit="10" x1="167.1" y1="221.9" x2="167.9" y2="228.9"/>
	<line fill="none" stroke="#000000" stroke-width="2.9906" stroke-miterlimit="10" x1="181.5" y1="215.9" x2="182.2" y2="223.5"/>
	<line fill="none" stroke="#000000" stroke-width="2.9906" stroke-miterlimit="10" x1="194.1" y1="208" x2="194.2" y2="216.8"/>
	<line fill="none" stroke="#000000" stroke-width="2.9906" stroke-miterlimit="10" x1="204.3" y1="198.6" x2="205.4" y2="207.4"/>
	<line fill="none" stroke="#000000" stroke-width="2.9906" stroke-miterlimit="10" x1="211.1" y1="189.2" x2="212.2" y2="198.2"/>
</g>
<g>
	<path fill="#FFFFFF" stroke="#000000" stroke-width="2.9906" stroke-miterlimit="10" d="M217.4,150.7c1.6,31.8-35.4,56.1-82.4,58.4
		c-47,2.3-86.2-18.1-87.8-49.9"/>
	
		<ellipse transform="matrix(0.9988 -4.977237e-02 4.977237e-02 0.9988 -7.0544 6.7362)" fill="#FFFFFF" stroke="#000000" stroke-width="2.9906" stroke-miterlimit="10" cx="131.7" cy="145" rx="85.2" ry="57.7"/>
	<line fill="none" stroke="#000000" stroke-width="2.9906" stroke-miterlimit="10" x1="47.1" y1="160" x2="46.6" y2="149.3"/>
	<line fill="none" stroke="#000000" stroke-width="2.9906" stroke-miterlimit="10" x1="217.4" y1="151.5" x2="216.9" y2="140.8"/>
	<line fill="none" stroke="#000000" stroke-width="2.9906" stroke-miterlimit="10" x1="55.8" y1="173.3" x2="56" y2="182.9"/>
	<line fill="none" stroke="#000000" stroke-width="2.9906" stroke-miterlimit="10" x1="68.8" y1="185.6" x2="68.9" y2="194.3"/>
	<line fill="none" stroke="#000000" stroke-width="2.9906" stroke-miterlimit="10" x1="86.8" y1="195.3" x2="86.7" y2="202.9"/>
	<line fill="none" stroke="#000000" stroke-width="2.9906" stroke-miterlimit="10" x1="101.6" y1="199.8" x2="101.5" y2="206.9"/>
	<line fill="none" stroke="#000000" stroke-width="2.9906" stroke-miterlimit="10" x1="119.3" y1="202.5" x2="119" y2="209"/>
	<line fill="none" stroke="#000000" stroke-width="2.9906" stroke-miterlimit="10" x1="137.6" y1="202.5" x2="137.9" y2="208.1"/>
	<line fill="none" stroke="#000000" stroke-width="2.9906" stroke-miterlimit="10" x1="152.6" y1="200.4" x2="153.1" y2="207.1"/>
	<line fill="none" stroke="#000000" stroke-width="2.9906" stroke-miterlimit="10" x1="167.1" y1="196.6" x2="167.9" y2="203.5"/>
	<line fill="none" stroke="#000000" stroke-width="2.9906" stroke-miterlimit="10" x1="181.5" y1="190.5" x2="182.2" y2="198.2"/>
	<line fill="none" stroke="#000000" stroke-width="2.9906" stroke-miterlimit="10" x1="194.1" y1="182.6" x2="194.2" y2="191.5"/>
	<line fill="none" stroke="#000000" stroke-width="2.9906" stroke-miterlimit="10" x1="204.3" y1="173.3" x2="205.4" y2="182.1"/>
	<line fill="none" stroke="#000000" stroke-width="2.9906" stroke-miterlimit="10" x1="211.1" y1="163.9" x2="212.2" y2="172.9"/>
</g>
<g>
	<path fill="#FFFFFF" stroke="#000000" stroke-width="2.9906" stroke-miterlimit="10" d="M208.9,133.8c1.6,31.8-35.4,56.1-82.4,58.4
		c-47,2.3-86.2-18.1-87.8-49.9"/>
	
		<ellipse transform="matrix(0.9988 -4.977237e-02 4.977237e-02 0.9988 -6.2246 6.2952)" fill="#FFFFFF" stroke="#000000" stroke-width="2.9906" stroke-miterlimit="10" cx="123.3" cy="128.1" rx="85.2" ry="57.7"/>
	<line fill="none" stroke="#000000" stroke-width="2.9906" stroke-miterlimit="10" x1="38.7" y1="143.1" x2="38.2" y2="132.4"/>
	<line fill="none" stroke="#000000" stroke-width="2.9906" stroke-miterlimit="10" x1="209" y1="134.6" x2="208.4" y2="123.9"/>
	<line fill="none" stroke="#000000" stroke-width="2.9906" stroke-miterlimit="10" x1="47.4" y1="156.4" x2="47.6" y2="166"/>
	<line fill="none" stroke="#000000" stroke-width="2.9906" stroke-miterlimit="10" x1="60.4" y1="168.8" x2="60.5" y2="177.5"/>
	<line fill="none" stroke="#000000" stroke-width="2.9906" stroke-miterlimit="10" x1="78.3" y1="178.4" x2="78.3" y2="186"/>
	<line fill="none" stroke="#000000" stroke-width="2.9906" stroke-miterlimit="10" x1="93.2" y1="183" x2="93.1" y2="190"/>
	<line fill="none" stroke="#000000" stroke-width="2.9906" stroke-miterlimit="10" x1="110.8" y1="185.6" x2="110.5" y2="192.1"/>
	<line fill="none" stroke="#000000" stroke-width="2.9906" stroke-miterlimit="10" x1="129.2" y1="185.6" x2="129.4" y2="191.2"/>
	<line fill="none" stroke="#000000" stroke-width="2.9906" stroke-miterlimit="10" x1="144.2" y1="183.5" x2="144.6" y2="190.2"/>
	<line fill="none" stroke="#000000" stroke-width="2.9906" stroke-miterlimit="10" x1="158.7" y1="179.7" x2="159.5" y2="186.7"/>
	<line fill="none" stroke="#000000" stroke-width="2.9906" stroke-miterlimit="10" x1="173" y1="173.6" x2="173.8" y2="181.3"/>
	<line fill="none" stroke="#000000" stroke-width="2.9906" stroke-miterlimit="10" x1="185.7" y1="165.8" x2="185.8" y2="174.6"/>
	<line fill="none" stroke="#000000" stroke-width="2.9906" stroke-miterlimit="10" x1="195.8" y1="156.4" x2="196.9" y2="165.2"/>
	<line fill="none" stroke="#000000" stroke-width="2.9906" stroke-miterlimit="10" x1="202.6" y1="147" x2="203.7" y2="156"/>
</g>
<g>
	<path fill="#FFFFFF" stroke="#000000" stroke-width="2.9906" stroke-miterlimit="10" d="M217.4,111.6c1.6,31.8-35.4,56.1-82.4,58.4
		S48.7,152,47.1,120.1"/>
	
		<ellipse transform="matrix(0.9988 -4.977237e-02 4.977237e-02 0.9988 -5.1127 6.6879)" fill="#FFFFFF" stroke="#000000" stroke-width="2.9906" stroke-miterlimit="10" cx="131.7" cy="106" rx="85.2" ry="57.7"/>
	<line fill="none" stroke="#000000" stroke-width="2.9906" stroke-miterlimit="10" x1="47.1" y1="121" x2="46.6" y2="110.2"/>
	<line fill="none" stroke="#000000" stroke-width="2.9906" stroke-miterlimit="10" x1="217.4" y1="112.5" x2="216.9" y2="101.8"/>
	<line fill="none" stroke="#000000" stroke-width="2.9906" stroke-miterlimit="10" x1="55.8" y1="134.3" x2="56" y2="143.8"/>
	<line fill="none" stroke="#000000" stroke-width="2.9906" stroke-miterlimit="10" x1="68.8" y1="146.6" x2="68.9" y2="155.3"/>
	<line fill="none" stroke="#000000" stroke-width="2.9906" stroke-miterlimit="10" x1="86.8" y1="156.2" x2="86.7" y2="163.9"/>
	<line fill="none" stroke="#000000" stroke-width="2.9906" stroke-miterlimit="10" x1="101.6" y1="160.8" x2="101.5" y2="167.8"/>
	<line fill="none" stroke="#000000" stroke-width="2.9906" stroke-miterlimit="10" x1="119.3" y1="163.5" x2="119" y2="170"/>
	<line fill="none" stroke="#000000" stroke-width="2.9906" stroke-miterlimit="10" x1="137.6" y1="163.5" x2="137.9" y2="169.1"/>
	<line fill="none" stroke="#000000" stroke-width="2.9906" stroke-miterlimit="10" x1="152.6" y1="161.4" x2="153.1" y2="168"/>
	<line fill="none" stroke="#000000" stroke-width="2.9906" stroke-miterlimit="10" x1="167.1" y1="157.6" x2="167.9" y2="164.5"/>
	<line fill="none" stroke="#000000" stroke-width="2.9906" stroke-miterlimit="10" x1="181.5" y1="151.5" x2="182.2" y2="159.1"/>
	<line fill="none" stroke="#000000" stroke-width="2.9906" stroke-miterlimit="10" x1="194.1" y1="143.6" x2="194.2" y2="152.5"/>
	<line fill="none" stroke="#000000" stroke-width="2.9906" stroke-miterlimit="10" x1="204.3" y1="134.3" x2="205.4" y2="143.1"/>
	<line fill="none" stroke="#000000" stroke-width="2.9906" stroke-miterlimit="10" x1="211.1" y1="124.9" x2="212.2" y2="133.9"/>
</g>
<g>
	<path fill="#FFFFFF" stroke="#000000" stroke-width="2.9906" stroke-miterlimit="10" d="M231.6,90.6c1.6,31.8-35.4,56.1-82.4,58.4
		c-47,2.3-86.2-18.1-87.8-49.9"/>
	
		<ellipse transform="matrix(0.9988 -4.977237e-02 4.977237e-02 0.9988 -4.0476 7.3716)" fill="#FFFFFF" stroke="#000000" stroke-width="2.9906" stroke-miterlimit="10" cx="146" cy="85" rx="85.2" ry="57.7"/>
	
		<ellipse transform="matrix(0.9988 -4.977237e-02 4.977237e-02 0.9988 -4.0476 7.3716)" fill="#FFFFFF" stroke="#000000" stroke-width="1.7944" stroke-miterlimit="10" cx="146" cy="85" rx="74" ry="50.1"/>
	<line fill="none" stroke="#000000" stroke-width="2.9906" stroke-miterlimit="10" x1="61.4" y1="99.9" x2="60.9" y2="89.2"/>
	<line fill="none" stroke="#000000" stroke-width="2.9906" stroke-miterlimit="10" x1="231.7" y1="91.5" x2="231.1" y2="80.7"/>
	<line fill="none" stroke="#000000" stroke-width="2.9906" stroke-miterlimit="10" x1="70.1" y1="113.2" x2="70.3" y2="122.8"/>
	<line fill="none" stroke="#000000" stroke-width="2.9906" stroke-miterlimit="10" x1="83.1" y1="125.6" x2="83.2" y2="134.3"/>
	<line fill="none" stroke="#000000" stroke-width="2.9906" stroke-miterlimit="10" x1="101" y1="135.2" x2="101" y2="142.9"/>
	<line fill="none" stroke="#000000" stroke-width="2.9906" stroke-miterlimit="10" x1="115.9" y1="139.8" x2="115.8" y2="146.8"/>
	<line fill="none" stroke="#000000" stroke-width="2.9906" stroke-miterlimit="10" x1="133.5" y1="142.4" x2="133.2" y2="149"/>
	<line fill="none" stroke="#000000" stroke-width="2.9906" stroke-miterlimit="10" x1="151.9" y1="142.4" x2="152.1" y2="148"/>
	<line fill="none" stroke="#000000" stroke-width="2.9906" stroke-miterlimit="10" x1="166.9" y1="140.4" x2="167.3" y2="147"/>
	<line fill="none" stroke="#000000" stroke-width="2.9906" stroke-miterlimit="10" x1="181.4" y1="136.5" x2="182.2" y2="143.5"/>
	<line fill="none" stroke="#000000" stroke-width="2.9906" stroke-miterlimit="10" x1="195.7" y1="130.5" x2="196.5" y2="138.1"/>
	<line fill="none" stroke="#000000" stroke-width="2.9906" stroke-miterlimit="10" x1="208.4" y1="122.6" x2="208.5" y2="131.4"/>
	<line fill="none" stroke="#000000" stroke-width="2.9906" stroke-miterlimit="10" x1="218.5" y1="113.3" x2="219.6" y2="122"/>
	<line fill="none" stroke="#000000" stroke-width="2.9906" stroke-miterlimit="10" x1="225.3" y1="103.8" x2="226.4" y2="112.9"/>
</g>
<g>
	<g>
		<g>
			<path fill="#FFFFFF" d="M136.9,81.7l0.4-1.6l0.6,0.1c0.5,0.1,0.9,0.1,1.4,0.1c0.5,0,1-0.1,1.4-0.2c0.7-0.2,1.3-0.5,1.6-0.9
				c0.2-0.3,0.4-0.6,0.6-1.1c0.2-0.5,0.4-1,0.5-1.5c0.4-1.7,0.8-3.4,1.2-4.9l3-13.3c-0.7,0.9-1.3,1.8-1.9,2.6
				c-1.1,1.5-2.2,2.9-3.2,4.3c-1.1,1.4-2.1,2.8-3.2,4.3l-3.6,4.8c-0.2,0.2-0.5,0.6-0.8,1.1c-0.4,0.5-0.7,1-1.1,1.6
				c-0.4,0.5-0.7,1-1,1.5c-0.3,0.4-0.5,0.7-0.6,0.8l-0.2,0.4l-1-0.2l-1.3-6.8c-0.4-2.1-0.8-4.1-1.2-6.1c-0.4-2-0.7-3.8-1.1-5.5
				c-0.3-1.7-0.6-3.2-0.9-4.6c-0.2-0.9-0.4-1.7-0.5-2.4c-0.2,0.7-0.3,1.3-0.4,1.8l-0.9,3.9c-0.3,1.3-0.6,2.7-1,4.1l-1.1,5.1
				c-0.3,1.2-0.5,2.3-0.6,3.2c-0.1,0.8-0.1,1.6,0.1,2.2c0.1,0.6,0.5,1.1,0.9,1.5c0.5,0.5,1.3,0.9,2.3,1.3l0.5,0.2L125,79l-11.5-2.6
				l0.3-1.5l0.8,0c0.8,0,1.4-0.1,2-0.3c0.6-0.2,1-0.5,1.5-1c0.4-0.5,0.8-1.2,1.2-2c0.4-0.9,0.7-2,1-3.3c0.3-1.1,0.7-2.5,1-4
				c0.4-1.5,0.8-3.2,1.2-4.9l1.1-5c0.1-0.5,0.2-1.2,0.4-1.9c0.1-0.6,0.1-1.2,0-1.6c-0.2-0.4-0.4-0.8-0.7-1.1c-0.3-0.3-0.6-0.6-1-0.7
				c-0.4-0.2-0.7-0.4-1-0.5l-0.5-0.2l0.3-1.5l9.4,2.1l4.4,22.7c1.4-1.9,2.9-3.8,4.3-5.6c1.7-2.2,3.2-4.2,4.5-6
				c1.3-1.8,2.4-3.3,3.3-4.5c0.9-1.2,1.4-1.9,1.5-2.1l0.2-0.3l9.4,2.1l-0.4,1.5l-0.6-0.1c-0.4-0.1-0.8-0.1-1.2-0.1
				c-0.4,0-0.8,0.1-1.1,0.2c-0.6,0.2-1,0.6-1.2,1c-0.2,0.4-0.5,1-0.7,1.9c-0.3,0.9-0.5,1.9-0.8,2.8c-0.3,1.3-0.6,2.5-0.9,3.7
				l-1.8,7.9c-0.3,1.4-0.6,2.9-1,4.4c-0.1,0.5-0.2,1-0.2,1.5c-0.1,0.6,0,0.9,0,1.1c0,0.1,0.1,0.2,0.2,0.3c0.1,0.2,0.3,0.4,0.5,0.7
				c0.2,0.3,0.5,0.5,0.9,0.8c0.4,0.2,0.9,0.4,1.4,0.6l0.6,0.1l-0.3,1.5L136.9,81.7z"/>
			<path d="M121.6,47.7l8.4,1.9l4.6,23.6c1.7-2.2,3.4-4.5,5.1-6.7c1.7-2.2,3.2-4.2,4.5-6c1.3-1.8,2.4-3.3,3.3-4.5
				c0.9-1.2,1.4-1.9,1.5-2.1l8.4,1.9l-0.1,0.4c-0.5-0.1-0.9-0.1-1.3-0.1c-0.5,0-1,0.1-1.3,0.3c-0.7,0.3-1.2,0.7-1.5,1.2
				c-0.3,0.4-0.5,1.1-0.8,2c-0.3,0.9-0.5,1.9-0.8,2.8c-0.3,1.3-0.6,2.5-0.9,3.7c-0.3,1.2-0.5,2.4-0.8,3.6c-0.3,1.4-0.6,2.8-1,4.3
				c-0.3,1.4-0.6,2.9-1,4.4c-0.1,0.5-0.2,1-0.2,1.5c-0.1,0.5,0,1,0.1,1.3c0,0.1,0.1,0.2,0.2,0.4c0.1,0.2,0.3,0.5,0.6,0.8
				c0.3,0.3,0.6,0.6,1.1,0.9c0.4,0.3,1,0.5,1.6,0.7l-0.1,0.4l-13.6-3.1l0.1-0.4c0.5,0.1,1,0.1,1.5,0.1c0.6,0,1.1-0.1,1.5-0.2
				c0.9-0.2,1.5-0.6,1.9-1.1c0.2-0.3,0.5-0.7,0.6-1.2c0.2-0.5,0.4-1,0.5-1.5c0.4-1.7,0.8-3.4,1.2-5c0.4-1.6,0.7-3.2,1.1-4.9
				l2.5-11.2c-1.3,1.8-2.5,3.4-3.6,4.8c-1.1,1.5-2.2,2.9-3.2,4.3c-1.1,1.4-2.1,2.8-3.2,4.3c-1.1,1.5-2.3,3.1-3.6,4.8
				c-0.2,0.2-0.5,0.6-0.8,1.1c-0.4,0.5-0.7,1-1.1,1.6c-0.4,0.5-0.7,1-1,1.5c-0.3,0.4-0.5,0.7-0.6,0.9l-0.2-0.1
				c-0.4-2.1-0.8-4.3-1.2-6.4c-0.4-2.1-0.8-4.1-1.2-6.1c-0.4-2-0.7-3.8-1.1-5.5c-0.3-1.7-0.6-3.2-0.9-4.6c-0.3-1.3-0.5-2.5-0.7-3.4
				c-0.2-0.9-0.3-1.5-0.4-1.8c-0.4,1.7-0.7,3.3-1.1,4.6c-0.3,1.3-0.6,2.6-0.9,3.9c-0.3,1.3-0.6,2.7-1,4.1c-0.3,1.4-0.7,3.1-1.1,5.1
				c-0.3,1.2-0.5,2.3-0.6,3.2c-0.1,0.9-0.1,1.7,0.1,2.4c0.2,0.7,0.5,1.3,1.1,1.8c0.6,0.5,1.4,1,2.5,1.4l-0.1,0.4l-10.3-2.3l0.1-0.4
				c0.1,0,0.2,0,0.3,0c0.8,0,1.6-0.1,2.2-0.3c0.7-0.2,1.2-0.6,1.7-1.2c0.5-0.6,0.9-1.3,1.3-2.2c0.4-0.9,0.7-2,1.1-3.4
				c0.3-1.1,0.7-2.4,1-4c0.4-1.5,0.8-3.2,1.2-5c0.2-0.8,0.3-1.4,0.4-1.9c0.1-0.5,0.2-1,0.3-1.5c0.1-0.5,0.2-1,0.3-1.5
				c0.1-0.5,0.3-1.2,0.4-1.9c0.1-0.7,0.1-1.4-0.1-1.9c-0.2-0.5-0.4-1-0.8-1.3c-0.3-0.4-0.7-0.6-1.1-0.9c-0.4-0.2-0.8-0.4-1.1-0.5
				L121.6,47.7 M120.7,46.2l-0.3,1.2l-0.1,0.4l-0.2,1l0.9,0.4c0.3,0.1,0.6,0.3,1,0.5c0.3,0.2,0.6,0.4,0.8,0.6
				c0.2,0.2,0.4,0.5,0.5,0.9c0.1,0.3,0.1,0.8,0,1.3c-0.1,0.8-0.3,1.4-0.4,1.9l-0.1,0.7l-0.2,0.9l-0.3,1.5l-0.2,0.8l-0.2,1.1
				c-0.4,1.7-0.8,3.4-1.2,4.9c-0.4,1.5-0.7,2.8-1,4c-0.3,1.3-0.7,2.4-1,3.2c-0.3,0.8-0.7,1.4-1.1,1.8c-0.3,0.4-0.7,0.7-1.2,0.8
				c-0.5,0.2-1.1,0.2-1.8,0.2c-0.1,0-0.2,0-0.3,0l-1,0l-0.2,1l-0.1,0.4l-0.3,1.2l1.2,0.3l10.3,2.3l1.2,0.3l0.3-1.2l0.1-0.4l0.2-1
				l-1-0.4c-1-0.4-1.7-0.7-2.1-1.2c-0.4-0.3-0.6-0.7-0.7-1.2c-0.1-0.5-0.2-1.2,0-2c0.1-0.9,0.3-1.9,0.6-3.1l0.5-2.3l0.6-2.7
				c0.3-1.4,0.6-2.8,1-4.1l0.2-0.7l0.6-2.4c0.3,1.3,0.6,2.7,0.9,4.3c0.3,1.7,0.7,3.5,1.1,5.5c0.4,1.9,0.8,4,1.2,6.1
				c0.4,2.1,0.8,4.2,1.2,6.4l0.1,0.8l0.8,0.2l0.2,0.1l0.8,0.2l0.4-0.7c0-0.1,0.1-0.2,0.6-0.8c0.3-0.4,0.7-0.9,1.1-1.5
				c0.4-0.5,0.7-1.1,1.1-1.6c0.3-0.5,0.6-0.8,0.8-1.1l0,0l0,0c1.3-1.8,2.5-3.4,3.6-4.8c1.1-1.5,2.2-2.9,3.2-4.3
				c1.1-1.4,2.1-2.8,3.2-4.3c0.1-0.1,0.2-0.2,0.2-0.3l-1.3,5.7l-1.1,4.9c-0.4,1.6-0.8,3.2-1.2,4.9c-0.1,0.5-0.3,0.9-0.5,1.4
				c-0.2,0.4-0.3,0.7-0.5,0.9c-0.2,0.3-0.7,0.5-1.3,0.7c-0.4,0.1-0.8,0.2-1.2,0.2c-0.4,0-0.8,0-1.3-0.1l-1.1-0.2l-0.3,1.1l-0.1,0.4
				l-0.3,1.2l1.2,0.3l13.6,3.1l1.2,0.3l0.3-1.2l0.1-0.4l0.3-1.1l-1.1-0.3c-0.5-0.1-0.9-0.3-1.3-0.5c-0.3-0.2-0.6-0.4-0.8-0.7
				c-0.2-0.3-0.4-0.5-0.4-0.6c-0.1-0.1-0.1-0.2-0.1-0.2c0-0.1-0.1-0.4,0-0.8c0-0.5,0.1-0.9,0.2-1.4c0.3-1.5,0.6-3,1-4.4l0.5-2.2
				l0.5-2l0.5-2.4l0.3-1.2c0.3-1.2,0.6-2.4,0.9-3.6c0.2-0.9,0.5-1.8,0.7-2.7c0.3-1.1,0.5-1.5,0.7-1.7c0.2-0.3,0.5-0.6,1-0.8
				c0.2-0.1,0.5-0.1,0.9-0.1c0.3,0,0.7,0,1,0.1l1.1,0.2l0.3-1.1l0.1-0.4l0.3-1.2l-1.2-0.3l-8.4-1.9l-0.8-0.2l-0.5,0.7
				c-0.1,0.1-0.4,0.6-1.5,2c-0.9,1.2-2,2.7-3.3,4.5c-1.3,1.8-2.8,3.8-4.5,6c-1.1,1.5-2.3,3-3.5,4.6l-4.1-21l-0.1-0.8l-0.8-0.2
				l-8.4-1.9L120.7,46.2L120.7,46.2z"/>
		</g>
	</g>
	<g>
		<g>
			<path fill="#FFFFFF" d="M157.6,117.4l0.3-1.4l0.6,0.1c0.3,0.1,0.6,0.1,0.9,0.1c0.3,0,0.6,0,0.9-0.1c0.5-0.1,0.8-0.3,1-0.6
				c0.1-0.2,0.3-0.4,0.4-0.7c0.1-0.3,0.2-0.7,0.3-1c0.3-1.2,0.6-2.4,0.8-3.5l1.9-8.6c-0.3,0.4-0.6,0.8-0.9,1.1c-0.8,1-1.5,2-2.3,3
				c-0.7,1-1.5,2-2.3,3l-2.5,3.4c-0.1,0.2-0.3,0.4-0.6,0.8c-0.3,0.4-0.5,0.7-0.8,1.1c-0.3,0.4-0.5,0.7-0.7,1
				c-0.2,0.3-0.3,0.5-0.4,0.6l-0.2,0.4l-1-0.2l-0.9-4.9c-0.3-1.5-0.6-2.9-0.8-4.3c-0.3-1.4-0.5-2.7-0.8-3.9
				c-0.2-1.2-0.4-2.3-0.6-3.2c-0.1-0.3-0.1-0.6-0.2-0.9c0,0.2-0.8,3.3-0.8,3.3c-0.2,0.9-0.4,1.9-0.7,2.9l-0.8,3.6
				c-0.2,0.8-0.3,1.6-0.4,2.2c-0.1,0.6-0.1,1.1,0,1.5c0.1,0.4,0.3,0.7,0.6,1c0.3,0.3,0.9,0.6,1.6,0.9l0.5,0.2l-0.3,1.4l-8.4-1.9
				l0.3-1.3l0.7,0c0.5,0,1-0.1,1.3-0.2c0.4-0.1,0.7-0.3,1-0.6c0.3-0.3,0.6-0.8,0.8-1.4c0.2-0.6,0.5-1.4,0.7-2.3
				c0.2-0.8,0.5-1.7,0.7-2.8c0.3-1.1,0.5-2.2,0.8-3.5l0.8-3.5c0.1-0.4,0.2-0.8,0.3-1.3c0.1-0.4,0.1-0.8,0-1
				c-0.1-0.3-0.2-0.5-0.4-0.7c-0.2-0.2-0.4-0.4-0.6-0.5c-0.3-0.1-0.5-0.3-0.7-0.3l-0.5-0.2l0.3-1.4l6.9,1.6l3,15.7
				c0.9-1.2,1.9-2.4,2.8-3.6c1.2-1.6,2.2-3,3.2-4.2c0.9-1.3,1.7-2.3,2.3-3.2c0.6-0.8,0.9-1.3,1-1.4l0.2-0.3l6.9,1.6l-0.3,1.4
				l-0.6-0.1c-0.3-0.1-0.5-0.1-0.8-0.1c-0.3,0-0.5,0-0.7,0.1c-0.4,0.2-0.6,0.4-0.8,0.6c-0.1,0.2-0.3,0.5-0.5,1.3
				c-0.2,0.7-0.4,1.3-0.5,1.9c-0.2,0.9-0.4,1.7-0.6,2.6l-1.3,5.5c-0.2,1-0.4,2-0.7,3.1c-0.1,0.3-0.1,0.7-0.2,1c0,0.4,0,0.6,0,0.7
				c0,0,0,0.1,0.1,0.2c0,0.1,0.1,0.2,0.3,0.4c0.1,0.2,0.4,0.3,0.6,0.5c0.3,0.2,0.6,0.3,1,0.4l0.6,0.1l-0.3,1.4L157.6,117.4z"/>
			<path d="M147.1,93.4l5.9,1.3l3.2,16.6c1.2-1.6,2.4-3.1,3.6-4.7c1.2-1.6,2.2-3,3.2-4.2c0.9-1.3,1.7-2.3,2.3-3.2
				c0.6-0.8,1-1.3,1-1.5l5.9,1.3l-0.1,0.3c-0.3-0.1-0.6-0.1-0.9-0.1c-0.4,0-0.7,0.1-0.9,0.2c-0.5,0.2-0.8,0.5-1.1,0.9
				c-0.2,0.3-0.4,0.8-0.6,1.4c-0.2,0.7-0.4,1.3-0.5,2c-0.2,0.9-0.4,1.7-0.6,2.6c-0.2,0.8-0.4,1.7-0.6,2.5c-0.2,1-0.5,2-0.7,3
				c-0.2,1-0.4,2-0.7,3.1c-0.1,0.4-0.1,0.7-0.2,1.1c0,0.4,0,0.7,0,0.9c0,0,0.1,0.1,0.1,0.3c0.1,0.2,0.2,0.4,0.4,0.6
				c0.2,0.2,0.4,0.4,0.7,0.6c0.3,0.2,0.7,0.4,1.1,0.5l-0.1,0.3l-9.5-2.2l0.1-0.3c0.4,0.1,0.7,0.1,1,0.1c0.4,0,0.8,0,1.1-0.1
				c0.6-0.2,1-0.4,1.3-0.8c0.2-0.2,0.3-0.5,0.5-0.8c0.1-0.3,0.3-0.7,0.4-1.1c0.3-1.2,0.6-2.4,0.8-3.5c0.3-1.1,0.5-2.3,0.8-3.4
				l1.8-7.9c-0.9,1.2-1.8,2.4-2.5,3.4c-0.8,1-1.5,2-2.3,3c-0.7,1-1.5,2-2.3,3c-0.8,1-1.6,2.2-2.5,3.4c-0.1,0.2-0.3,0.4-0.6,0.8
				c-0.3,0.4-0.5,0.7-0.8,1.1c-0.3,0.4-0.5,0.7-0.7,1c-0.2,0.3-0.4,0.5-0.4,0.6l-0.2,0c-0.3-1.5-0.6-3-0.8-4.5
				c-0.3-1.5-0.6-2.9-0.8-4.3s-0.5-2.7-0.8-3.9c-0.2-1.2-0.4-2.3-0.6-3.2c-0.2-0.9-0.4-1.7-0.5-2.4c-0.1-0.6-0.2-1.1-0.2-1.3
				c-0.3,1.2-0.5,2.3-0.7,3.2c-0.2,0.9-0.4,1.9-0.7,2.8c-0.2,0.9-0.4,1.9-0.7,2.9c-0.2,1-0.5,2.2-0.8,3.6c-0.2,0.9-0.3,1.6-0.4,2.3
				c-0.1,0.7-0.1,1.2,0.1,1.7c0.1,0.5,0.4,0.9,0.8,1.3c0.4,0.4,1,0.7,1.8,1l-0.1,0.3l-7.2-1.6l0.1-0.3c0.1,0,0.1,0,0.2,0
				c0.6,0,1.1-0.1,1.5-0.2c0.5-0.2,0.9-0.4,1.2-0.8c0.3-0.4,0.6-0.9,0.9-1.5c0.3-0.6,0.5-1.4,0.7-2.4c0.2-0.8,0.5-1.7,0.7-2.8
				c0.3-1.1,0.5-2.2,0.8-3.5c0.1-0.5,0.2-1,0.3-1.4c0.1-0.4,0.2-0.7,0.2-1.1c0.1-0.4,0.2-0.7,0.2-1.1c0.1-0.4,0.2-0.8,0.3-1.4
				c0.1-0.5,0.1-1,0-1.3c-0.1-0.4-0.3-0.7-0.5-0.9c-0.2-0.2-0.5-0.4-0.8-0.6c-0.3-0.2-0.6-0.3-0.8-0.4L147.1,93.4 M146.2,92
				l-0.3,1.2l-0.1,0.3l-0.2,1l0.9,0.4c0.2,0.1,0.4,0.2,0.7,0.3c0.2,0.1,0.3,0.2,0.5,0.4c0.1,0.1,0.2,0.3,0.3,0.5
				c0,0.1,0.1,0.3,0,0.7c-0.1,0.5-0.2,1-0.3,1.3l-0.1,0.5l-0.1,0.6l-0.2,1.1l-0.1,0.6l-0.2,0.8c-0.3,1.2-0.6,2.4-0.8,3.5
				c-0.3,1.1-0.5,2-0.7,2.8c-0.2,0.9-0.5,1.6-0.7,2.2c-0.2,0.5-0.4,0.9-0.7,1.2c-0.2,0.2-0.4,0.4-0.7,0.5c-0.3,0.1-0.7,0.1-1.1,0.1
				l-0.2,0l-1,0l-0.2,1l-0.1,0.3l-0.3,1.2l1.2,0.3l7.2,1.6l1.2,0.3l0.3-1.2l0.1-0.3l0.2-1l-1-0.4c-0.8-0.3-1.2-0.6-1.4-0.7
				c-0.2-0.2-0.4-0.4-0.4-0.7c-0.1-0.3-0.1-0.8,0-1.2c0.1-0.6,0.2-1.3,0.4-2.2l0.4-1.6l0.4-1.9c0.2-1,0.5-2,0.7-2.9l0.1-0.6l0-0.1
				c0.1,0.5,0.2,0.9,0.3,1.4c0.2,1.2,0.5,2.5,0.8,3.9c0.3,1.4,0.5,2.8,0.8,4.3l0.8,4.5l0.1,0.8l0.8,0.2l0.2,0l0.8,0.2l0.4-0.7
				c0.1-0.1,0.2-0.3,0.4-0.5c0.2-0.3,0.5-0.7,0.7-1.1c0.3-0.4,0.5-0.7,0.8-1.1c0.2-0.3,0.4-0.6,0.5-0.7l0,0l0,0l2.5-3.4
				c0.8-1,1.5-2,2.3-3c0.5-0.6,1-1.3,1.4-1.9l-0.5,2.4l-0.8,3.4c-0.2,1.1-0.5,2.3-0.8,3.5c-0.1,0.3-0.2,0.6-0.3,0.9
				c-0.1,0.3-0.2,0.5-0.3,0.6c-0.1,0.1-0.2,0.2-0.7,0.4c-0.2,0.1-0.5,0.1-0.8,0.1c-0.3,0-0.5,0-0.8-0.1l-1.1-0.2l-0.3,1.1l-0.1,0.3
				l-0.3,1.2l1.2,0.3l9.5,2.2l1.2,0.3l0.3-1.2l0.1-0.3l0.3-1.1l-1.1-0.3c-0.3-0.1-0.6-0.2-0.8-0.3c-0.2-0.1-0.4-0.3-0.5-0.4
				c-0.2-0.2-0.2-0.3-0.2-0.3c0,0,0-0.1-0.1-0.1c0-0.1,0-0.2,0-0.4c0-0.3,0.1-0.6,0.1-0.9c0.2-1.1,0.5-2.1,0.7-3.1l0.4-1.8l0.3-1.2
				l0.3-1.5l0.2-1.1c0.2-0.8,0.4-1.7,0.6-2.6c0.2-0.6,0.3-1.3,0.5-1.9c0.2-0.7,0.4-1,0.4-1.1c0.1-0.2,0.3-0.3,0.5-0.4
				c0.1,0,0.3-0.1,0.5-0.1c0.2,0,0.4,0,0.7,0.1l1.1,0.2l0.3-1.1l0.1-0.3l0.3-1.2l-1.2-0.3l-5.9-1.3l-0.8-0.2l-0.5,0.7
				c0,0.1-0.2,0.3-1,1.4c-0.6,0.8-1.4,1.9-2.3,3.2c-0.9,1.3-2,2.7-3.2,4.2c-0.6,0.9-1.3,1.7-2,2.6l-2.7-14l-0.1-0.8l-0.8-0.2
				l-5.9-1.3L146.2,92L146.2,92z"/>
		</g>
	</g>
	<line fill="none" stroke="#000000" stroke-width="1.1963" stroke-miterlimit="10" x1="126.2" y1="84.9" x2="172.8" y2="95.5"/>
</g>
</svg>
